fontCallback.success({"glyphs":{"S":{"x_min":7.5625,"x_max":837.46875,"ha":882,"o":"m 837 979 l 811 845 q 674 901 742 882 q 544 920 607 920 q 348 866 421 920 q 276 723 276 812 q 302 648 276 674 q 440 591 329 621 l 522 571 q 716 480 662 535 q 771 325 771 425 q 650 76 771 172 q 333 -20 529 -20 q 171 -4 252 -20 q 7 44 89 11 l 35 185 q 186 114 110 138 q 337 91 261 91 q 542 147 465 91 q 620 296 620 204 q 589 388 620 357 q 456 446 558 420 l 374 467 q 183 551 234 503 q 132 685 132 599 q 248 934 132 837 q 551 1031 364 1031 q 695 1018 623 1031 q 837 979 766 1005 "},"¦":{"x_min":176,"x_max":291,"ha":468,"o":"m 291 277 l 291 -237 l 176 -237 l 176 277 l 291 277 m 291 971 l 291 457 l 176 457 l 176 971 l 291 971 "},"/":{"x_min":-102,"x_max":592.71875,"ha":468,"o":"m 472 1013 l 592 1013 l 18 -128 l -102 -128 l 472 1013 "},"₢":{"x_min":58.328125,"x_max":883.046875,"ha":884,"o":"m 499 94 q 608 122 555 101 q 762 212 687 151 l 733 50 q 584 -2 659 15 q 434 -19 510 -19 q 158 86 257 -19 q 58 380 58 191 q 96 617 58 501 q 204 830 134 734 q 376 982 280 933 q 601 1030 473 1030 q 751 1006 680 1030 q 883 934 822 982 l 857 790 q 732 887 798 855 q 588 919 666 919 q 403 864 483 919 q 265 694 323 808 q 209 539 228 621 q 189 375 189 457 q 255 164 189 236 q 397 94 307 105 l 502 683 l 604 683 l 585 577 q 681 668 626 636 q 802 699 737 699 q 834 697 818 699 q 866 691 851 695 l 847 579 q 812 594 832 589 q 769 598 792 598 q 627 530 688 598 q 545 348 566 462 l 499 94 "},"y":{"x_min":-35,"x_max":837,"ha":822,"o":"m 344 -70 q 202 -252 257 -216 q 63 -289 148 -289 l -35 -289 l -13 -185 l 58 -185 q 147 -156 110 -185 q 229 -44 183 -127 l 267 27 l 99 760 l 231 760 l 357 177 l 706 760 l 837 760 l 344 -70 "},"฿":{"x_min":48.15625,"x_max":817.171875,"ha":905,"o":"m 330 787 l 278 520 l 417 520 l 469 787 l 330 787 m 259 423 l 196 98 l 335 98 l 398 423 l 259 423 m 316 0 l 48 0 l 220 885 l 488 885 l 523 1068 l 591 1068 l 556 885 q 764 828 697 884 q 812 667 832 771 q 746 537 796 585 q 615 477 696 489 q 747 398 706 458 q 769 248 787 338 q 647 64 746 129 q 383 0 547 -1 l 347 -191 l 279 -191 l 316 0 m 537 787 l 485 520 q 615 553 567 523 q 680 653 667 585 q 653 754 693 720 q 537 787 617 784 m 466 423 l 403 98 q 563 138 506 99 q 636 261 620 178 q 611 383 653 344 q 466 423 569 423 "},"Á":{"x_min":-74,"x_max":854,"ha":950,"o":"m 511 1013 l 666 1013 l 854 0 l 710 0 l 668 260 l 213 260 l 70 0 l -74 0 l 511 1013 m 560 878 l 276 374 l 647 374 l 560 878 m 671 1288 l 812 1288 l 604 1109 l 497 1109 l 671 1288 "},"g":{"x_min":45.015625,"x_max":828,"ha":882,"o":"m 828 760 l 698 93 q 555 -194 661 -99 q 272 -289 450 -289 q 150 -279 206 -289 q 45 -249 93 -269 l 68 -128 q 165 -171 114 -157 q 275 -186 217 -186 q 470 -121 394 -186 q 571 64 546 -56 l 582 121 q 460 31 529 62 q 311 0 391 0 q 130 76 196 0 q 64 286 64 152 q 104 492 64 391 q 216 670 144 592 q 328 750 264 722 q 462 778 392 778 q 596 742 539 778 q 681 642 653 706 l 702 760 l 828 760 m 640 481 q 597 623 640 573 q 473 674 553 674 q 379 654 424 674 q 303 599 334 634 q 222 461 251 540 q 194 298 194 382 q 237 154 194 204 q 363 104 281 104 q 561 211 481 104 q 640 481 640 319 "},"²":{"x_min":50,"x_max":534,"ha":557,"o":"m 446 739 l 185 530 l 484 530 l 468 453 l 50 453 l 64 527 l 350 758 q 410 818 390 789 q 430 874 430 847 q 401 934 430 911 q 325 957 373 957 q 243 945 288 957 q 142 910 199 934 l 159 993 q 257 1021 211 1012 q 346 1031 303 1031 q 482 992 430 1031 q 534 893 534 953 q 512 812 534 851 q 446 739 490 774 "},"ë":{"x_min":64,"x_max":793,"ha":855,"o":"m 667 448 q 670 470 669 458 q 672 493 672 481 q 623 623 672 575 q 491 672 575 672 q 327 613 398 672 q 219 447 256 554 l 667 448 m 776 350 l 195 350 q 190 309 191 324 q 189 283 189 294 q 247 137 189 189 q 410 86 305 86 q 564 104 492 86 q 699 158 637 122 l 676 35 q 537 -6 608 7 q 392 -20 465 -20 q 149 55 234 -20 q 64 270 64 131 q 106 491 64 389 q 230 673 148 593 q 356 750 283 723 q 511 778 429 778 q 716 700 640 778 q 793 493 793 623 q 788 426 793 461 q 776 350 784 390 m 357 1053 l 496 1053 l 468 916 l 331 916 l 357 1053 m 622 1053 l 760 1053 l 733 916 l 596 916 l 622 1053 "},"Î":{"x_min":37,"x_max":527,"ha":410,"o":"m 234 1013 l 371 1013 l 174 0 l 37 0 l 234 1013 m 273 1289 l 419 1289 l 527 1109 l 435 1109 l 340 1229 l 198 1109 l 96 1109 l 273 1289 "},"Ꙅ":{"x_min":-4.484375,"x_max":812.046875,"ha":882,"o":"m 200 979 q 358 1018 282 1005 q 506 1030 435 1030 q 752 953 672 1030 q 805 741 831 876 q 701 560 782 626 q 461 465 620 495 l 375 448 q 212 385 266 427 q 143 269 158 343 q 182 137 127 183 q 354 91 236 91 q 516 115 431 91 q 693 185 600 139 l 666 44 q 489 -3 573 12 q 332 -19 404 -19 q 58 56 141 -19 q 2 279 -25 132 q 113 476 27 402 q 360 579 201 550 l 446 596 q 609 651 562 617 q 670 752 657 685 q 633 876 685 832 q 469 919 581 919 q 331 901 404 919 q 173 845 259 883 l 200 979 "},"e":{"x_min":64,"x_max":793,"ha":855,"o":"m 667 448 q 670 470 669 458 q 672 493 672 481 q 623 623 672 575 q 491 672 575 672 q 327 613 398 672 q 219 447 256 554 l 667 448 m 776 350 l 195 350 q 190 309 191 324 q 189 283 189 294 q 247 137 189 189 q 410 86 305 86 q 564 104 492 86 q 699 158 637 122 l 676 35 q 537 -6 608 7 q 392 -20 465 -20 q 149 55 234 -20 q 64 270 64 131 q 106 491 64 389 q 230 673 148 593 q 356 750 283 723 q 511 778 429 778 q 716 700 640 778 q 793 493 793 623 q 788 426 793 461 q 776 350 784 390 "},"Ã":{"x_min":-74,"x_max":858,"ha":950,"o":"m 511 1013 l 666 1013 l 854 0 l 710 0 l 668 260 l 213 260 l 70 0 l -74 0 l 511 1013 m 560 878 l 276 374 l 647 374 l 560 878 m 609 1160 l 585 1177 l 584 1178 q 529 1200 555 1200 q 488 1182 506 1200 q 457 1131 470 1165 l 373 1131 q 438 1242 396 1205 q 537 1280 480 1280 q 582 1272 561 1280 q 627 1248 602 1265 l 649 1230 q 674 1216 661 1220 q 700 1212 687 1212 q 746 1230 727 1212 q 773 1280 765 1248 l 858 1280 q 793 1168 835 1205 q 688 1131 750 1131 q 648 1138 667 1131 q 609 1160 630 1145 "},"J":{"x_min":-228,"x_max":370,"ha":410,"o":"m 232 1013 l 370 1013 l 186 70 q 64 -195 150 -113 q -173 -278 -20 -278 l -228 -278 l -205 -163 l -162 -163 q -23 -110 -71 -163 q 48 70 23 -58 l 232 1013 "},"»":{"x_min":86,"x_max":770,"ha":857,"o":"m 386 95 l 412 231 l 653 414 l 482 595 l 508 718 l 770 434 l 759 378 l 386 95 m 86 95 l 112 231 l 351 414 l 181 595 l 206 718 l 468 434 l 458 378 l 86 95 "},"ꙮ":{"x_min":31.84375,"x_max":1188.96875,"ha":1221,"o":"m 675 14 l 766 14 l 745 -90 l 654 -90 l 675 14 m 316 14 l 407 14 l 386 -90 l 295 -90 l 316 14 m 832 826 l 923 826 l 903 720 l 812 720 l 832 826 m 474 826 l 564 826 l 544 720 l 453 720 l 474 826 m 216 421 l 307 421 l 286 315 l 196 315 l 216 421 m 933 421 l 1024 421 l 1004 315 l 913 315 l 933 421 m 374 503 q 287 552 348 552 q 181 503 226 552 q 120 372 136 455 q 129 240 103 288 q 217 191 155 191 q 322 240 278 191 q 383 372 367 288 q 374 503 400 455 m 632 909 q 545 957 606 957 q 439 909 484 957 q 377 777 394 860 q 387 645 361 693 q 475 597 414 597 q 580 645 536 597 q 641 777 625 693 q 632 909 657 860 m 990 909 q 904 957 965 957 q 797 909 843 957 q 736 777 752 860 q 746 645 720 693 q 834 597 773 597 q 939 645 895 597 q 1000 777 984 693 q 990 909 1016 860 m 1091 503 q 1005 552 1066 552 q 898 503 944 552 q 837 372 853 455 q 847 240 821 288 q 934 191 873 191 q 1040 240 995 191 q 1101 372 1085 288 q 1091 503 1117 455 m 732 503 q 645 552 706 552 q 539 503 584 552 q 478 372 494 455 q 487 240 461 288 q 575 191 514 191 q 680 240 636 191 q 741 372 725 288 q 732 503 758 455 m 474 97 q 387 145 448 145 q 281 97 326 145 q 220 -34 236 49 q 230 -166 204 -118 q 317 -214 256 -214 q 423 -166 378 -214 q 484 -34 467 -118 q 474 97 500 49 m 833 97 q 746 145 807 145 q 640 97 685 145 q 579 -34 595 49 q 589 -166 562 -118 q 676 -214 615 -214 q 781 -166 737 -214 q 843 -34 826 -118 q 833 97 859 49 m 1019 626 q 1159 556 1115 626 q 1181 370 1203 487 q 1087 187 1159 256 q 920 118 1015 118 l 917 118 q 923 -34 940 55 q 829 -219 900 -150 q 661 -288 758 -288 q 520 -220 564 -288 q 502 -182 509 -202 q 471 -219 489 -202 q 303 -288 400 -288 q 162 -219 206 -288 q 141 -34 118 -151 q 204 118 158 55 q 202 118 203 118 q 61 186 105 118 q 39 370 16 255 q 133 556 61 487 q 301 626 204 626 l 303 626 q 298 777 280 687 q 391 962 320 893 q 559 1031 462 1031 q 701 963 656 1031 q 718 925 711 945 q 750 963 731 945 q 917 1031 821 1031 q 1059 962 1014 1031 q 1081 777 1103 893 q 1016 626 1063 687 l 1019 626 m 574 421 l 665 421 l 644 315 l 554 315 l 574 421 "},"₨":{"x_min":40.015625,"x_max":1429.6875,"ha":1491,"o":"m 352 900 l 282 540 l 454 540 q 612 586 553 540 q 689 720 672 632 q 664 854 706 809 q 524 900 623 900 l 352 900 m 826 4 l 828 0 l 681 0 l 602 259 q 531 394 571 361 q 408 427 490 427 l 259 427 l 177 0 l 40 0 l 236 1012 l 545 1012 q 790 940 719 1012 q 833 720 862 867 q 758 562 815 625 q 612 474 701 499 q 686 411 653 459 q 743 276 718 362 l 781 154 q 902 103 841 120 q 1032 84 966 84 q 1173 114 1120 84 q 1237 200 1226 145 q 1218 278 1247 250 q 1078 330 1189 305 l 1037 340 q 884 415 925 364 q 859 554 842 465 q 967 719 880 661 q 1195 777 1055 777 q 1323 767 1264 777 q 1429 737 1382 757 l 1406 619 q 1304 659 1359 646 q 1189 673 1250 673 q 1044 644 1096 673 q 981 559 992 616 q 1001 491 973 516 q 1125 444 1029 466 l 1166 434 q 1339 354 1294 406 q 1367 209 1385 302 q 1251 42 1346 103 q 1009 -19 1155 -19 q 885 -7 948 -19 q 826 4 855 -2 "},"₪":{"x_min":-33.234375,"x_max":1146.875,"ha":1164,"o":"m 205 1010 l 548 1012 q 779 911 716 1012 q 796 612 842 810 l 738 363 l 617 363 l 671 595 q 673 829 708 758 q 522 901 638 901 l 301 901 l 86 -19 l -33 -19 l 205 1010 m 903 -19 l 564 -19 q 333 81 396 -19 q 316 380 270 182 l 374 629 l 495 629 l 441 397 q 439 163 404 234 q 590 91 474 91 l 813 91 l 1025 1012 l 1146 1012 l 903 -19 "},"Ꙭ":{"x_min":63.078125,"x_max":1823.09375,"ha":1886,"o":"m 485 568 l 628 568 l 594 396 l 451 396 l 485 568 m 1277 568 l 1420 568 l 1386 396 l 1243 396 l 1277 568 m 649 1030 q 962 888 862 1030 q 1003 811 986 852 q 1072 888 1034 852 q 1442 1030 1228 1030 q 1755 888 1655 1030 q 1808 505 1854 745 q 1606 123 1761 265 q 1237 -19 1450 -19 q 923 122 1024 -19 q 883 199 899 158 q 813 123 851 158 q 444 -19 657 -19 q 131 122 231 -19 q 78 505 31 265 q 280 888 124 745 q 649 1030 436 1030 m 842 808 q 628 919 777 919 q 369 808 478 919 q 222 505 259 697 q 251 202 185 314 q 466 91 317 91 q 724 202 615 91 q 870 505 833 314 q 842 808 908 697 m 1635 808 q 1420 919 1570 919 q 1162 808 1271 919 q 1015 505 1052 697 q 1044 202 978 314 q 1259 91 1110 91 q 1517 202 1408 91 q 1663 505 1626 314 q 1635 808 1700 697 "},"©":{"x_min":192,"x_max":1197,"ha":1389,"o":"m 694 1007 q 886 969 797 1007 q 1049 858 975 932 q 1160 695 1123 784 q 1197 502 1197 606 q 1160 310 1197 399 q 1049 148 1123 222 q 886 37 975 74 q 694 0 797 0 q 502 37 591 0 q 339 148 413 74 q 228 310 265 222 q 192 502 192 399 q 228 695 192 606 q 339 858 265 784 q 502 969 413 932 q 694 1007 591 1007 m 694 937 q 529 905 605 937 q 388 809 452 873 q 292 668 325 745 q 260 502 260 590 q 292 337 260 414 q 388 197 325 260 q 529 101 452 133 q 694 69 605 69 q 861 101 784 69 q 1001 197 938 133 q 1096 336 1064 260 q 1128 502 1128 413 q 1096 669 1128 592 q 1001 809 1064 746 q 861 905 938 873 q 694 937 784 937 m 897 771 l 897 684 q 808 716 852 705 q 719 727 764 727 q 562 667 618 727 q 506 502 506 608 q 563 335 506 394 q 726 277 621 277 q 811 287 769 277 q 897 321 852 297 l 897 235 q 805 205 851 215 q 711 196 758 196 q 480 278 565 196 q 395 502 395 361 q 480 725 395 643 q 711 808 565 808 q 806 798 760 808 q 897 771 852 789 "},"ò":{"x_min":64,"x_max":786,"ha":850,"o":"m 352 -20 q 141 62 219 -20 q 64 287 64 144 q 90 456 64 370 q 160 600 117 541 q 310 734 227 691 q 497 778 392 778 q 706 697 626 778 q 786 486 786 616 q 759 306 786 395 q 690 157 733 216 q 541 23 623 66 q 352 -20 458 -20 m 194 291 q 236 137 194 188 q 367 86 279 86 q 574 195 492 86 q 657 473 657 305 q 613 621 657 571 q 483 672 569 672 q 358 639 413 672 q 260 539 303 606 q 211 424 228 488 q 194 291 194 360 m 475 1111 l 617 857 l 512 857 l 342 1111 l 475 1111 "},"Ꙫ":{"x_min":64.265625,"x_max":1123.984375,"ha":1188,"o":"m 392 568 l 535 568 l 502 396 l 359 396 l 392 568 m 677 568 l 820 568 l 787 396 l 644 396 l 677 568 m 895 122 q 491 -19 726 -19 q 143 122 257 -19 q 78 505 31 265 q 293 888 124 745 q 696 1030 461 1030 q 1044 888 931 1030 q 1110 505 1157 745 q 895 122 1063 265 m 914 808 q 674 919 838 919 q 389 808 509 919 q 233 505 270 697 q 271 202 196 314 q 512 91 347 91 q 796 202 677 91 q 953 505 916 314 q 914 808 990 697 "},"^":{"x_min":147,"x_max":1016,"ha":1164,"o":"m 647 1013 l 1016 635 l 879 635 l 581 903 l 283 635 l 147 635 l 515 1013 l 647 1013 "},"«":{"x_min":86,"x_max":771,"ha":857,"o":"m 469 718 l 442 581 l 202 398 l 373 217 l 348 95 l 86 378 l 96 434 l 469 718 m 771 718 l 744 581 l 503 398 l 674 217 l 649 95 l 387 378 l 398 434 l 771 718 "},"D":{"x_min":37,"x_max":1003,"ha":1070,"o":"m 234 1013 l 528 1013 q 883 913 763 1013 q 1003 618 1003 814 q 957 368 1003 488 q 831 166 912 249 q 627 41 751 82 q 333 0 502 0 l 37 0 l 234 1013 m 349 900 l 196 113 l 375 113 q 732 245 606 113 q 859 618 859 377 q 777 831 859 763 q 522 900 695 900 l 349 900 "},"ꙥ":{"x_min":-22.375,"x_max":1256.75,"ha":1251,"o":"m -22 0 l -2 103 q 179 208 128 123 q 308 635 246 318 l 333 759 l 1256 759 l 1237 659 l 826 659 l 698 0 l 573 0 l 573 0 l 701 659 l 438 659 l 423 584 q 278 155 368 295 q -22 0 190 19 "},"₰":{"x_min":12.890625,"x_max":803.015625,"ha":884,"o":"m 94 349 l 12 415 q 219 577 143 577 q 336 524 303 577 q 404 452 381 452 q 483 497 437 452 q 379 721 379 592 q 386 789 379 754 q 475 965 409 906 q 640 1030 548 1030 q 772 965 718 1030 q 803 862 803 928 q 794 789 803 830 q 670 519 765 635 q 750 330 750 430 q 746 279 750 305 q 617 56 720 147 q 359 -19 530 -19 l 381 90 q 543 140 472 90 q 619 280 600 181 q 621 299 621 289 q 566 417 621 352 q 382 332 456 332 q 269 402 305 332 q 208 450 244 450 q 94 349 174 450 m 582 597 q 666 789 642 670 q 671 840 671 817 q 665 881 671 864 q 616 923 650 923 q 550 881 581 923 q 515 789 526 848 q 511 746 511 767 q 582 597 511 661 "},"ÿ":{"x_min":-35,"x_max":837,"ha":822,"o":"m 344 -70 q 202 -252 257 -216 q 63 -289 148 -289 l -35 -289 l -13 -185 l 58 -185 q 147 -156 110 -185 q 229 -44 183 -127 l 267 27 l 99 760 l 231 760 l 357 177 l 706 760 l 837 760 l 344 -70 m 346 1053 l 485 1053 l 457 916 l 320 916 l 346 1053 m 611 1053 l 749 1053 l 722 916 l 585 916 l 611 1053 "},"í":{"x_min":49,"x_max":550,"ha":386,"o":"m 198 760 l 322 760 l 174 0 l 49 0 l 198 760 m 415 1111 l 550 1111 l 279 856 l 175 856 l 415 1111 "},"w":{"x_min":118,"x_max":1137,"ha":1136,"o":"m 118 760 l 241 760 l 273 148 l 556 760 l 701 760 l 743 148 l 1012 760 l 1137 760 l 789 0 l 644 0 l 606 629 l 316 0 l 169 0 l 118 760 "},"$":{"x_min":46.5625,"x_max":791.515625,"ha":884,"o":"m 407 98 q 556 145 501 102 q 611 259 611 189 q 576 347 611 316 q 464 391 541 378 l 407 98 m 474 800 q 334 747 385 790 q 284 635 284 703 q 316 561 284 588 q 421 522 348 534 l 474 800 m 791 856 l 768 733 q 653 781 710 764 q 543 799 596 797 l 486 509 q 676 431 611 490 q 742 282 742 373 q 645 85 742 163 q 387 0 548 8 l 347 -204 l 279 -204 l 319 0 q 172 17 241 2 q 46 62 102 33 l 69 187 q 199 121 132 144 q 339 96 267 98 l 399 405 q 212 480 270 429 q 154 616 154 530 q 247 806 154 728 q 493 897 340 884 l 525 1055 l 592 1055 l 562 897 q 681 884 623 894 q 791 856 739 874 "},"Ꙩ":{"x_min":56,"x_max":1038,"ha":1093,"o":"m 633 920 q 435 865 521 920 q 285 698 349 810 q 223 547 244 627 q 202 385 202 467 q 269 167 202 244 q 460 91 336 91 q 658 146 571 91 q 807 310 745 201 q 870 464 848 384 q 892 625 892 545 q 824 842 892 765 q 633 920 756 920 m 456 -20 q 162 90 269 -20 q 56 393 56 201 q 97 617 56 503 q 212 822 139 732 q 404 979 298 927 q 637 1031 510 1031 q 930 921 823 1031 q 1038 622 1038 811 q 997 393 1038 505 q 880 188 956 280 q 689 31 793 83 q 456 -20 584 -20 m 485 568 l 628 568 l 594 396 l 451 396 l 485 568 "},"\\":{"x_min":118,"x_max":363.9375,"ha":468,"o":"m 233 1013 l 363 -128 l 250 -128 l 118 1013 l 233 1013 "},"ꙗ":{"x_min":56.96875,"x_max":1084.484375,"ha":1176,"o":"m 935 381 l 811 381 q 584 340 657 381 q 510 213 510 299 q 548 120 510 153 q 652 86 585 86 q 830 159 754 86 q 930 354 906 231 l 935 381 m 1070 433 l 986 0 l 861 0 l 884 115 q 759 13 829 47 q 602 -19 689 -19 q 443 39 505 -19 q 381 191 381 99 q 436 353 381 286 l 250 353 l 181 0 l 56 0 l 204 759 l 329 759 l 270 456 l 600 456 q 780 479 678 479 l 954 479 l 961 512 q 963 524 962 518 q 963 544 963 531 q 914 638 963 604 q 776 672 865 672 q 651 656 715 672 q 519 609 587 640 l 541 725 q 679 764 611 751 q 809 777 746 777 q 1014 719 944 777 q 1084 550 1084 661 q 1081 497 1084 527 q 1070 433 1077 469 "},"Ì":{"x_min":37,"x_max":406,"ha":410,"o":"m 234 1013 l 371 1013 l 174 0 l 37 0 l 234 1013 m 305 1288 l 406 1109 l 310 1109 l 182 1288 l 305 1288 "},"µ":{"x_min":-18,"x_max":822.171875,"ha":884,"o":"m -18 -289 l 186 760 l 311 760 l 219 287 q 214 255 216 272 q 212 219 212 237 q 252 122 212 156 q 365 89 291 89 q 527 145 466 89 q 611 316 589 202 l 697 760 l 822 760 l 708 175 q 705 153 706 162 q 704 136 704 143 q 712 105 704 115 q 739 95 721 95 q 758 99 746 95 q 791 111 769 102 l 772 10 q 715 -12 742 -4 q 662 -20 688 -20 q 592 8 618 -20 q 567 87 567 37 q 476 6 529 33 q 352 -20 424 -20 q 242 9 289 -20 q 180 86 195 38 l 107 -289 l -18 -289 "},"Ç":{"x_min":58,"x_max":965,"ha":970,"o":"m 965 935 l 937 791 q 799 888 872 856 q 641 920 726 920 q 437 864 525 920 q 285 694 349 808 q 223 539 244 621 q 202 374 202 457 q 273 163 202 236 q 481 91 345 91 q 662 121 576 91 q 831 212 749 151 l 800 50 q 636 -2 719 15 q 471 -20 554 -20 q 167 85 277 -20 q 58 380 58 191 q 99 617 58 501 q 219 830 141 734 q 408 982 302 933 q 655 1031 514 1031 q 820 1007 742 1031 q 965 935 897 983 m 506 0 q 542 -64 530 -34 q 554 -122 554 -93 q 504 -228 554 -189 q 367 -268 454 -268 q 309 -263 338 -268 q 251 -251 280 -259 l 266 -163 q 319 -179 293 -174 q 375 -185 346 -185 q 439 -164 415 -185 q 464 -107 464 -143 q 455 -63 464 -87 q 426 0 447 -38 l 506 0 "},"-":{"x_min":62,"x_max":450,"ha":501,"o":"m 84 436 l 450 436 l 428 325 l 62 325 l 84 436 "},"ꙑ":{"x_min":96.3125,"x_max":1202.796875,"ha":1259,"o":"m 1078 760 l 1202 760 l 1054 0 l 929 0 l 1078 760 m 611 449 q 874 277 874 449 q 869 225 874 252 q 523 0 825 0 l 214 0 l 342 659 l 96 659 l 115 759 l 487 759 l 427 449 l 611 449 m 739 252 q 585 349 739 349 l 407 349 l 359 99 l 537 99 q 736 225 712 99 q 739 252 739 239 "},"Q":{"x_min":57,"x_max":1038,"ha":1093,"o":"m 501 -18 q 485 -19 493 -19 q 461 -20 477 -20 q 164 88 271 -20 q 57 389 57 197 q 98 617 57 503 q 212 822 139 731 q 403 978 297 926 q 637 1031 509 1031 q 930 921 823 1031 q 1038 622 1038 811 q 925 248 1038 418 q 633 9 813 79 l 771 -179 l 617 -179 l 501 -18 m 633 920 q 434 865 520 920 q 284 698 348 810 q 222 547 243 627 q 201 385 201 467 q 268 167 201 244 q 459 91 336 91 q 658 146 570 91 q 807 310 745 201 q 870 464 848 384 q 892 625 892 545 q 824 842 892 765 q 633 920 756 920 "},"M":{"x_min":37,"x_max":1161,"ha":1198,"o":"m 234 1013 l 439 1013 l 557 330 l 950 1013 l 1161 1013 l 964 0 l 830 0 l 1003 888 l 605 195 l 471 195 l 342 890 l 170 0 l 37 0 l 234 1013 "},"C":{"x_min":58,"x_max":965,"ha":970,"o":"m 965 935 l 937 791 q 799 888 872 856 q 641 920 726 920 q 437 864 525 920 q 285 694 349 808 q 223 539 244 621 q 202 374 202 457 q 273 163 202 236 q 481 91 345 91 q 662 121 576 91 q 831 212 749 151 l 800 50 q 636 -2 719 15 q 471 -20 554 -20 q 167 85 277 -20 q 58 380 58 191 q 99 617 58 501 q 219 830 141 734 q 408 982 302 933 q 655 1031 514 1031 q 820 1007 742 1031 q 965 935 897 983 "},"ꚋ":{"x_min":94.953125,"x_max":888.875,"ha":1002,"o":"m 114 759 l 842 759 l 822 659 l 520 659 l 475 427 l 645 427 q 862 379 824 427 q 876 169 906 322 l 841 -13 q 744 -223 812 -158 q 554 -288 676 -288 l 423 -288 l 444 -183 l 560 -183 q 663 -150 635 -183 q 716 -13 696 -113 l 751 165 q 752 302 773 276 q 633 330 729 330 l 456 330 l 392 0 l 269 0 l 397 659 l 94 659 l 114 759 "},"!":{"x_min":110,"x_max":444,"ha":557,"o":"m 307 1013 l 444 1013 l 357 568 l 296 326 l 187 326 l 221 568 l 307 1013 m 145 172 l 281 172 l 248 0 l 110 0 l 145 172 "},"ç":{"x_min":64,"x_max":745,"ha":764,"o":"m 745 730 l 719 607 q 624 655 675 639 q 519 672 574 672 q 406 650 460 672 q 316 591 352 629 q 225 452 257 532 q 194 288 194 373 q 245 136 194 186 q 400 86 296 86 q 510 101 452 86 q 631 148 568 117 l 607 25 q 495 -8 553 2 q 378 -20 438 -20 q 145 55 226 -20 q 64 271 64 131 q 106 489 64 389 q 232 668 148 588 q 365 750 289 722 q 533 778 442 778 q 638 766 586 778 q 745 730 690 754 m 404 0 q 440 -64 428 -34 q 452 -122 452 -93 q 402 -228 452 -189 q 265 -268 352 -268 q 207 -263 236 -268 q 149 -251 178 -259 l 164 -163 q 217 -179 191 -174 q 273 -185 244 -185 q 337 -164 313 -185 q 362 -107 362 -143 q 353 -63 362 -87 q 324 0 345 -38 l 404 0 "},"È":{"x_min":37,"x_max":875,"ha":878,"o":"m 234 1013 l 875 1013 l 852 898 l 348 898 l 289 598 l 773 598 l 751 483 l 267 483 l 196 115 l 712 115 l 690 0 l 37 0 l 234 1013 m 547 1288 l 648 1109 l 552 1109 l 424 1288 l 547 1288 "},"{":{"x_min":168.46875,"x_max":840.796875,"ha":884,"o":"m 840 1055 l 821 958 l 768 958 q 644 931 676 958 q 591 802 612 904 l 557 632 q 494 474 535 523 q 378 410 453 425 q 455 363 427 398 q 482 277 482 328 q 479 239 482 261 q 472 191 477 216 l 440 25 q 435 -13 437 4 q 433 -47 433 -31 q 462 -109 433 -90 q 557 -129 491 -129 l 610 -129 l 590 -227 l 542 -227 q 359 -189 414 -227 q 305 -69 305 -152 q 307 -24 305 -47 q 314 23 309 -1 l 345 183 q 346 191 345 185 q 353 255 353 225 q 319 338 353 313 q 209 364 286 364 l 168 364 l 187 464 l 229 464 q 370 500 327 464 q 435 640 413 537 l 467 805 q 508 937 484 888 q 570 1012 532 985 q 648 1045 601 1035 q 785 1055 694 1055 l 840 1055 "},"X":{"x_min":-60,"x_max":976.328125,"ha":952,"o":"m 190 1013 l 328 1013 l 502 647 l 816 1013 l 976 1013 l 559 529 l 810 0 l 673 0 l 469 426 l 99 0 l -60 0 l 413 544 l 190 1013 "},"ô":{"x_min":64,"x_max":786,"ha":850,"o":"m 352 -20 q 141 62 219 -20 q 64 287 64 144 q 90 456 64 370 q 160 600 117 541 q 310 734 227 691 q 497 778 392 778 q 706 697 626 778 q 786 486 786 616 q 759 306 786 395 q 690 157 733 216 q 541 23 623 66 q 352 -20 458 -20 m 194 291 q 236 137 194 188 q 367 86 279 86 q 574 195 492 86 q 657 473 657 305 q 613 621 657 571 q 483 672 569 672 q 358 639 413 672 q 260 539 303 606 q 211 424 228 488 q 194 291 194 360 m 523 1111 l 623 1111 l 740 856 l 645 856 l 559 1016 l 401 856 l 307 856 l 523 1111 "},"¼":{"x_min":91.5,"x_max":1331.03125,"ha":1346,"o":"m 1197 481 l 930 200 l 1141 200 l 1197 481 m 1197 566 l 1310 566 l 1238 200 l 1331 200 l 1316 126 l 1224 126 l 1199 0 l 1103 0 l 1128 126 l 846 126 l 862 214 l 1197 566 m 105 528 l 244 528 l 324 942 l 169 914 l 184 993 l 340 1019 l 438 1019 l 342 528 l 481 528 l 466 453 l 91 453 l 105 528 m 1031 1031 l 1152 1031 l 315 -20 l 193 -20 l 1031 1031 "},"#":{"x_min":97,"x_max":1074,"ha":1164,"o":"m 608 997 l 538 716 l 736 716 l 807 997 l 915 997 l 846 716 l 1074 716 l 1047 612 l 819 612 l 763 385 l 994 385 l 970 281 l 737 281 l 666 0 l 558 0 l 628 281 l 429 281 l 359 0 l 250 0 l 320 281 l 97 281 l 122 385 l 346 385 l 402 612 l 175 612 l 201 716 l 429 716 l 498 997 l 608 997 m 710 612 l 512 612 l 455 385 l 654 385 l 710 612 "},"Ê":{"x_min":37,"x_max":875,"ha":878,"o":"m 234 1013 l 875 1013 l 852 898 l 348 898 l 289 598 l 773 598 l 751 483 l 267 483 l 196 115 l 712 115 l 690 0 l 37 0 l 234 1013 m 515 1289 l 661 1289 l 769 1109 l 677 1109 l 582 1229 l 440 1109 l 338 1109 l 515 1289 "},")":{"x_min":-86,"x_max":401,"ha":542,"o":"m -86 -183 q 182 243 94 41 q 271 632 271 445 q 245 844 271 739 q 168 1054 220 950 l 277 1054 q 370 827 339 936 q 401 612 401 718 q 306 211 401 410 q 25 -183 212 12 l -86 -183 "},"Ꙕ":{"x_min":63.078125,"x_max":1454.78125,"ha":1500,"o":"m 841 808 q 626 919 775 919 q 368 808 477 919 q 222 505 259 697 q 208 377 208 436 q 250 202 208 274 q 465 91 316 91 q 724 202 614 91 q 870 505 833 314 q 884 632 884 574 q 841 808 884 737 m 1024 563 l 1230 563 l 1317 1012 l 1454 1012 l 1258 0 l 1121 0 l 1208 448 l 1002 448 q 806 119 955 258 q 443 -19 657 -19 q 130 123 230 -19 q 63 362 63 220 q 78 505 63 428 q 280 888 124 745 q 648 1030 435 1030 q 956 892 862 1030 q 1030 645 1030 784 q 1024 563 1030 605 "},"Å":{"x_min":-74,"x_max":854,"ha":950,"o":"m 692 1102 q 661 1175 692 1145 q 588 1206 631 1206 q 515 1176 545 1206 q 486 1102 486 1146 q 515 1029 486 1059 q 588 1000 545 1000 q 661 1029 631 1000 q 692 1102 692 1059 m 477 953 q 422 1017 441 979 q 403 1102 403 1055 q 457 1234 403 1179 q 588 1289 511 1289 q 720 1234 665 1289 q 775 1102 775 1179 q 750 1007 775 1048 q 679 941 725 966 l 854 0 l 711 0 l 669 260 l 213 260 l 70 0 l -74 0 l 477 953 m 560 877 l 276 374 l 648 374 l 560 877 "},"ø":{"x_min":-19,"x_max":864,"ha":850,"o":"m 610 625 q 554 660 585 648 q 483 672 522 672 q 276 563 357 672 q 195 284 195 454 q 196 238 195 252 q 200 213 197 225 l 610 625 m 104 116 q 74 192 84 149 q 64 286 64 235 q 90 455 64 368 q 160 600 117 541 q 309 734 226 691 q 497 778 391 778 q 606 760 556 778 q 695 708 656 742 l 805 819 l 864 761 l 747 644 q 776 564 766 606 q 786 475 786 522 q 759 303 786 391 q 690 157 732 216 q 542 23 624 66 q 352 -20 459 -20 q 244 -1 293 -20 q 155 51 194 16 l 38 -64 l -19 -6 l 104 116 m 651 548 l 239 134 q 296 97 265 109 q 367 86 327 86 q 576 196 495 86 q 657 486 657 307 q 655 525 657 512 q 651 548 654 538 "},"â":{"x_min":57,"x_max":760,"ha":851,"o":"m 746 433 l 661 0 l 536 0 l 559 115 q 434 13 504 47 q 278 -20 364 -20 q 119 39 181 -20 q 57 191 57 98 q 163 402 57 325 q 455 480 269 480 l 629 480 l 636 513 q 638 525 637 518 q 639 544 639 531 q 589 638 639 605 q 451 672 540 672 q 326 656 390 672 q 194 610 262 641 l 216 725 q 354 764 287 751 q 485 778 422 778 q 689 719 619 778 q 760 550 760 661 q 756 497 760 527 q 746 433 753 467 m 611 382 l 486 382 q 259 340 333 382 q 186 213 186 299 q 223 119 186 153 q 327 86 261 86 q 505 158 429 86 q 605 354 581 231 l 611 382 m 513 1111 l 613 1111 l 730 856 l 635 856 l 549 1016 l 391 856 l 297 856 l 513 1111 "},"}":{"x_min":9.5,"x_max":682.328125,"ha":884,"o":"m 9 -227 l 29 -129 l 82 -129 q 206 -102 174 -129 q 258 26 238 -75 l 293 196 q 356 354 315 305 q 472 417 396 403 q 395 464 422 430 q 368 551 368 499 q 370 589 368 568 q 377 637 373 611 l 409 802 q 415 842 413 825 q 416 875 416 859 q 387 938 416 919 q 293 958 358 958 l 240 958 l 258 1055 l 308 1055 q 490 1018 435 1055 q 546 898 546 981 q 543 854 546 877 q 535 804 541 831 l 505 645 q 503 637 505 643 q 497 573 497 604 q 530 490 497 515 q 640 465 563 465 l 682 465 l 662 365 l 620 365 q 480 327 522 365 q 417 188 437 290 l 381 23 q 340 -109 364 -62 q 280 -183 316 -157 q 202 -216 248 -206 q 65 -227 155 -227 l 9 -227 "},"Ä":{"x_min":-74,"x_max":854,"ha":950,"o":"m 511 1013 l 666 1013 l 854 0 l 710 0 l 668 260 l 213 260 l 70 0 l -74 0 l 511 1013 m 560 878 l 276 374 l 647 374 l 560 878 m 422 1269 l 561 1269 l 533 1131 l 396 1131 l 422 1269 m 687 1269 l 824 1269 l 798 1131 l 661 1131 l 687 1269 "},"Ꙥ":{"x_min":-41.375,"x_max":1498.875,"ha":1408,"o":"m -41 0 l -18 115 q 198 258 137 147 q 370 840 290 427 l 403 1012 l 1498 1012 l 1476 897 l 983 897 l 809 0 l 672 0 l 846 897 l 517 897 l 493 772 q 316 212 417 387 q -41 0 215 37 "},"¸":{"x_min":68,"x_max":371,"ha":695,"o":"m 323 0 q 359 -64 347 -34 q 371 -122 371 -93 q 321 -228 371 -189 q 184 -268 271 -268 q 126 -263 155 -268 q 68 -251 97 -259 l 83 -163 q 136 -179 110 -174 q 192 -185 163 -185 q 256 -164 232 -185 q 281 -107 281 -143 q 272 -63 281 -87 q 243 0 264 -38 l 323 0 "},"a":{"x_min":57,"x_max":760,"ha":851,"o":"m 746 433 l 661 0 l 536 0 l 559 115 q 434 13 504 47 q 278 -20 364 -20 q 119 39 181 -20 q 57 191 57 98 q 163 402 57 325 q 455 480 269 480 l 629 480 l 636 513 q 638 525 637 518 q 639 544 639 531 q 589 638 639 605 q 451 672 540 672 q 326 656 390 672 q 194 610 262 641 l 216 725 q 354 764 287 751 q 485 778 422 778 q 689 719 619 778 q 760 550 760 661 q 756 497 760 527 q 746 433 753 467 m 611 382 l 486 382 q 259 340 333 382 q 186 213 186 299 q 223 119 186 153 q 327 86 261 86 q 505 158 429 86 q 605 354 581 231 l 611 382 "},"=":{"x_min":147,"x_max":1016,"ha":1164,"o":"m 147 631 l 1016 631 l 1016 517 l 147 517 l 147 631 m 147 354 l 1016 354 l 1016 239 l 147 239 l 147 354 "},"N":{"x_min":37,"x_max":1001,"ha":1039,"o":"m 234 1013 l 418 1013 l 698 144 l 867 1013 l 1001 1013 l 804 0 l 619 0 l 339 873 l 170 0 l 37 0 l 234 1013 "},"ꙕ":{"x_min":63.75,"x_max":1112.28125,"ha":1169,"o":"m 481 672 q 308 593 381 672 q 208 379 234 514 q 198 284 198 327 q 225 164 198 213 q 367 86 267 86 q 541 164 468 86 q 641 379 615 242 q 651 474 651 430 q 625 594 651 545 q 481 672 581 672 m 784 456 q 928 456 784 456 l 987 759 l 1112 759 l 964 0 l 839 0 l 908 353 l 767 353 q 619 82 728 185 q 347 -19 510 -19 q 112 86 184 -19 q 63 263 63 157 q 75 379 63 317 q 225 672 112 566 q 501 777 339 777 q 730 681 664 777 q 786 495 786 600 q 784 456 786 476 "},"ú":{"x_min":79,"x_max":818,"ha":880,"o":"m 92 301 l 181 760 l 306 760 l 217 306 q 207 249 210 272 q 204 209 204 225 q 240 120 204 152 q 340 89 275 89 q 514 156 440 89 q 609 339 587 224 l 693 760 l 818 760 l 671 0 l 545 0 l 571 119 q 445 16 518 52 q 290 -20 372 -20 q 134 34 190 -20 q 79 187 79 89 q 82 238 79 207 q 92 301 85 268 m 662 1111 l 797 1111 l 526 856 l 422 856 l 662 1111 "},"2":{"x_min":5,"x_max":797,"ha":884,"o":"m 640 488 l 202 114 l 686 114 l 662 0 l 5 0 l 27 115 l 484 507 q 614 646 576 586 q 653 769 653 706 q 606 876 653 835 q 486 918 560 918 q 342 894 421 918 q 174 828 264 871 l 199 964 q 360 1014 283 997 q 502 1031 437 1031 q 715 960 634 1031 q 797 775 797 889 q 758 627 797 697 q 640 488 719 557 "},"ü":{"x_min":79,"x_max":818,"ha":880,"o":"m 92 301 l 181 760 l 306 760 l 217 306 q 207 249 210 272 q 204 209 204 225 q 240 120 204 152 q 340 89 275 89 q 514 156 440 89 q 609 339 587 224 l 693 760 l 818 760 l 671 0 l 545 0 l 571 119 q 445 16 518 52 q 290 -20 372 -20 q 134 34 190 -20 q 79 187 79 89 q 82 238 79 207 q 92 301 85 268 m 354 1053 l 493 1053 l 465 916 l 328 916 l 354 1053 m 619 1053 l 757 1053 l 730 916 l 593 916 l 619 1053 "},"¯":{"x_min":258,"x_max":683,"ha":694,"o":"m 277 1035 l 683 1035 l 663 935 l 258 935 l 277 1035 "},"Z":{"x_min":-31,"x_max":976,"ha":952,"o":"m 181 1013 l 976 1013 l 956 908 l 172 115 l 817 115 l 795 0 l -31 0 l -11 104 l 773 898 l 159 898 l 181 1013 "},"u":{"x_min":79,"x_max":818,"ha":880,"o":"m 92 301 l 181 760 l 306 760 l 217 306 q 207 249 210 272 q 204 209 204 225 q 240 120 204 152 q 340 89 275 89 q 514 156 440 89 q 609 339 587 224 l 693 760 l 818 760 l 671 0 l 545 0 l 571 119 q 445 16 518 52 q 290 -20 372 -20 q 134 34 190 -20 q 79 187 79 89 q 82 238 79 207 q 92 301 85 268 "},"Ó":{"x_min":56,"x_max":1038,"ha":1093,"o":"m 633 920 q 435 865 521 920 q 285 698 349 810 q 223 547 244 627 q 202 385 202 467 q 269 167 202 244 q 460 91 336 91 q 658 146 571 91 q 807 310 745 201 q 870 464 848 384 q 892 625 892 545 q 824 842 892 765 q 633 920 756 920 m 456 -20 q 162 90 269 -20 q 56 393 56 201 q 97 617 56 503 q 212 822 139 732 q 404 979 298 927 q 637 1031 510 1031 q 930 921 823 1031 q 1038 622 1038 811 q 997 393 1038 505 q 880 188 956 280 q 689 31 793 83 q 456 -20 584 -20 m 754 1288 l 895 1288 l 687 1109 l 580 1109 l 754 1288 "},"k":{"x_min":49,"x_max":850,"ha":804,"o":"m 255 1055 l 379 1055 l 260 440 l 688 760 l 850 760 l 372 396 l 721 0 l 570 0 l 246 371 l 174 0 l 49 0 l 255 1055 "},"₯":{"x_min":65.109375,"x_max":1635.875,"ha":1767,"o":"m 1061 -308 l 941 -280 l 1146 207 q 1245 381 1189 309 q 1347 473 1289 436 q 1471 510 1405 510 q 1559 491 1521 510 q 1615 436 1597 471 q 1635 346 1635 399 q 1629 278 1635 314 q 1567 129 1612 197 q 1458 22 1520 59 q 1329 -20 1388 -20 q 1254 1 1292 -20 q 1211 50 1225 16 l 1061 -308 m 1445 392 q 1339 320 1386 392 q 1309 265 1327 303 q 1289 200 1298 242 q 1287 172 1287 186 q 1293 137 1287 153 q 1350 101 1308 101 q 1397 113 1374 101 q 1440 147 1420 125 q 1477 202 1457 165 q 1503 274 1495 236 q 1508 320 1508 300 q 1500 363 1508 345 q 1480 385 1495 377 q 1445 392 1468 392 m 354 268 q 381 329 368 295 l 615 902 q 558 882 583 895 q 511 845 531 867 q 474 786 493 825 l 362 822 q 434 920 392 878 q 526 987 476 963 q 733 1030 615 1030 q 965 989 871 1030 q 1108 873 1059 947 q 1161 748 1153 807 q 1169 655 1169 690 q 1159 553 1169 605 q 1107 381 1144 476 q 1011 208 1072 293 q 937 122 978 161 q 849 51 897 83 q 741 0 796 16 q 622 -19 673 -19 q 550 -13 580 -19 q 487 8 517 -6 q 437 36 457 23 q 390 69 399 62 l 381 75 q 347 37 364 52 q 221 -19 283 -19 q 99 24 141 -19 q 65 105 65 59 q 67 134 65 119 q 133 242 80 197 q 258 287 187 287 q 354 268 307 287 m 756 907 l 522 318 q 465 190 489 233 l 489 172 q 570 119 538 134 q 641 102 605 102 q 775 147 714 102 q 890 267 836 193 q 966 410 931 323 q 1009 550 996 482 q 1018 632 1018 592 q 1015 680 1018 657 q 978 792 1007 746 q 756 907 908 897 m 288 138 q 233 161 265 161 q 196 151 208 161 q 184 132 186 142 q 183 126 183 128 q 194 105 183 113 q 229 96 208 96 q 288 138 260 96 "},"Ù":{"x_min":81,"x_max":990.46875,"ha":1017,"o":"m 215 1013 l 352 1013 l 233 397 q 223 328 226 355 q 220 281 220 302 q 272 139 220 188 q 425 91 324 91 q 629 162 556 91 q 733 397 702 234 l 852 1013 l 990 1013 l 868 380 q 716 77 828 175 q 409 -20 604 -20 q 169 56 258 -20 q 81 263 81 132 q 84 316 81 287 q 94 380 87 346 l 215 1013 m 608 1288 l 709 1109 l 613 1109 l 485 1288 l 608 1288 "},"€":{"x_min":-26,"x_max":843,"ha":884,"o":"m 843 935 l 820 791 q 707 890 764 858 q 586 922 651 922 q 415 855 489 922 q 294 659 342 789 l 647 659 l 611 576 l 269 576 q 255 507 261 542 q 247 436 250 473 l 549 436 l 511 353 l 245 353 q 305 154 251 220 q 461 89 358 89 q 600 118 535 89 q 734 212 665 147 l 708 50 q 577 -2 644 15 q 444 -20 510 -20 q 203 79 293 -20 q 108 353 114 178 l -26 353 l 11 436 l 109 436 q 118 508 112 473 q 131 576 123 542 l 14 576 l 51 659 l 154 659 q 328 938 219 846 q 591 1031 436 1031 q 724 1007 661 1031 q 843 935 786 983 "},"₦":{"x_min":53.578125,"x_max":985.453125,"ha":1039,"o":"m 423 639 l 397 779 l 370 639 l 423 639 m 458 456 l 439 556 l 354 556 l 334 456 l 458 456 m 309 1012 l 494 1012 l 564 639 l 720 639 l 793 1012 l 926 1012 l 853 639 l 985 639 l 969 556 l 837 556 l 817 456 l 950 456 l 933 373 l 801 373 l 729 0 l 544 0 l 474 373 l 318 373 l 245 0 l 112 0 l 185 373 l 53 373 l 69 456 l 201 456 l 221 556 l 88 556 l 105 639 l 237 639 l 309 1012 m 580 556 l 599 456 l 685 456 l 704 556 l 580 556 m 615 373 l 641 233 l 668 373 l 615 373 "},"¢":{"x_min":103,"x_max":782.390625,"ha":884,"o":"m 514 668 q 312 543 393 652 q 231 288 231 434 q 272 147 231 197 q 400 84 313 97 l 514 668 m 603 777 q 696 760 652 772 q 782 730 740 749 l 758 607 q 684 647 726 632 q 582 671 642 662 l 468 86 q 563 104 513 89 q 669 148 613 119 l 646 25 q 552 -5 601 5 q 450 -20 502 -16 l 410 -213 l 342 -213 l 382 -20 q 175 64 248 -11 q 103 271 103 140 q 223 620 103 479 q 534 777 343 761 l 572 970 l 640 970 l 603 777 "},"ß":{"x_min":65,"x_max":819,"ha":875,"o":"m 214 770 q 330 979 240 904 q 553 1055 420 1055 q 745 991 671 1055 q 819 828 819 928 q 816 791 819 811 q 810 745 814 770 q 633 694 701 740 q 566 582 566 648 q 580 531 566 555 q 626 481 594 506 l 659 455 q 768 346 740 391 q 796 248 796 302 q 701 55 796 131 q 459 -20 607 -20 q 360 -11 408 -20 q 270 13 313 -3 l 291 124 q 382 94 335 104 q 477 84 429 84 q 613 122 561 84 q 666 223 666 161 q 650 280 666 253 q 582 351 634 306 l 547 381 q 458 474 481 436 q 436 557 436 512 q 507 711 436 643 q 697 805 579 780 q 699 817 698 810 q 700 837 700 824 q 661 920 700 889 q 555 951 623 951 q 410 904 465 951 q 339 767 356 858 l 190 0 l 65 0 l 214 770 "},"é":{"x_min":64,"x_max":800,"ha":855,"o":"m 667 448 q 670 470 669 458 q 672 493 672 481 q 623 623 672 575 q 491 672 575 672 q 327 613 398 672 q 219 447 256 554 l 667 448 m 776 350 l 195 350 q 190 309 191 324 q 189 283 189 294 q 247 137 189 189 q 410 86 305 86 q 564 104 492 86 q 699 158 637 122 l 676 35 q 537 -6 608 7 q 392 -20 465 -20 q 149 55 234 -20 q 64 270 64 131 q 106 491 64 389 q 230 673 148 593 q 356 750 283 723 q 511 778 429 778 q 716 700 640 778 q 793 493 793 623 q 788 426 793 461 q 776 350 784 390 m 665 1111 l 800 1111 l 529 856 l 425 856 l 665 1111 "},"s":{"x_min":15.09375,"x_max":694.328125,"ha":724,"o":"m 694 738 l 670 620 q 566 660 621 647 q 452 674 511 674 q 297 640 354 674 q 241 549 241 606 q 372 445 241 481 q 387 441 382 443 l 427 429 q 594 356 552 394 q 636 252 636 318 q 539 56 636 132 q 288 -20 443 -20 q 161 -8 228 -20 q 15 27 95 2 l 39 156 q 174 102 108 120 q 301 84 240 84 q 450 123 393 84 q 508 223 508 162 q 357 328 508 288 l 344 332 l 301 343 q 163 409 207 368 q 119 514 119 450 q 210 706 119 635 q 458 778 301 778 q 578 768 519 778 q 694 738 637 758 "},"B":{"x_min":37,"x_max":868,"ha":953,"o":"m 234 1013 l 583 1013 q 797 960 726 1013 q 868 800 868 907 q 807 632 868 702 q 647 546 746 561 q 773 473 731 527 q 816 330 816 420 q 703 88 816 177 q 394 0 590 0 l 37 0 l 234 1013 m 267 484 l 195 113 l 415 113 q 606 169 539 113 q 674 330 674 226 q 629 447 674 410 q 486 484 585 484 l 267 484 m 347 900 l 288 595 l 492 595 q 663 642 601 595 q 725 773 725 689 q 683 869 725 839 q 550 900 641 900 l 347 900 "},"?":{"x_min":171,"x_max":710,"ha":737,"o":"m 345 172 l 312 0 l 175 0 l 208 172 l 345 172 m 196 955 q 334 1012 265 993 q 474 1031 402 1031 q 646 980 583 1031 q 710 841 710 929 q 673 710 710 771 q 555 583 637 649 l 484 526 q 408 449 427 481 q 377 355 389 417 l 360 272 l 231 272 l 252 376 q 291 484 265 440 q 393 591 317 529 l 465 651 q 544 735 521 699 q 568 810 568 771 q 531 890 568 861 q 429 920 494 920 q 308 895 374 920 q 171 827 241 871 l 196 955 "},"H":{"x_min":37,"x_max":1007,"ha":1044,"o":"m 234 1013 l 371 1013 l 291 598 l 788 598 l 869 1013 l 1007 1013 l 810 0 l 672 0 l 766 483 l 268 483 l 174 0 l 37 0 l 234 1013 "},"î":{"x_min":49,"x_max":487,"ha":386,"o":"m 198 760 l 322 760 l 174 0 l 49 0 l 198 760 m 270 1111 l 370 1111 l 487 856 l 392 856 l 306 1016 l 148 856 l 54 856 l 270 1111 "},"c":{"x_min":64,"x_max":745,"ha":764,"o":"m 745 730 l 719 607 q 624 655 675 639 q 519 672 574 672 q 406 650 460 672 q 316 591 352 629 q 225 452 257 532 q 194 288 194 373 q 245 136 194 186 q 400 86 296 86 q 510 101 452 86 q 631 148 568 117 l 607 25 q 495 -8 553 2 q 378 -20 438 -20 q 145 55 226 -20 q 64 271 64 131 q 106 489 64 389 q 232 668 148 588 q 365 750 289 722 q 533 778 442 778 q 638 766 586 778 q 745 730 690 754 "},"¶":{"x_min":109,"x_max":796.875,"ha":884,"o":"m 521 1013 l 796 1013 l 574 -134 l 480 -134 l 687 930 l 557 930 l 350 -134 l 254 -134 l 365 440 q 177 508 245 444 q 109 679 109 572 q 225 917 109 822 q 521 1013 342 1013 "},"¥":{"x_min":62.421875,"x_max":934.3125,"ha":884,"o":"m 760 309 l 481 309 l 422 0 l 285 0 l 344 309 l 62 309 l 78 392 l 360 392 l 368 426 l 331 532 l 105 532 l 122 615 l 302 615 l 164 1013 l 293 1013 l 455 538 l 802 1013 l 934 1013 l 642 615 l 820 615 l 804 532 l 581 532 l 505 426 l 498 392 l 776 392 l 760 309 "},"(":{"x_min":107,"x_max":593,"ha":542,"o":"m 593 1054 q 324 627 413 829 q 236 238 236 426 q 261 26 236 131 q 339 -183 287 -79 l 230 -183 q 137 43 168 -66 q 107 259 107 154 q 200 658 107 461 q 482 1054 293 856 l 593 1054 "},"U":{"x_min":81,"x_max":990.46875,"ha":1017,"o":"m 215 1013 l 352 1013 l 233 397 q 223 328 226 355 q 220 281 220 302 q 272 139 220 188 q 425 91 324 91 q 629 162 556 91 q 733 397 702 234 l 852 1013 l 990 1013 l 868 380 q 716 77 828 175 q 409 -20 604 -20 q 169 56 258 -20 q 81 263 81 132 q 84 316 81 287 q 94 380 87 346 l 215 1013 "},"₠":{"x_min":69.265625,"x_max":1200.453125,"ha":1218,"o":"m 630 298 q 505 243 569 261 q 374 225 441 225 q 123 330 202 225 q 80 619 44 436 q 235 907 115 802 q 527 1013 355 1013 q 652 995 596 1013 q 754 940 709 977 l 733 832 q 637 904 691 881 q 517 928 583 928 q 302 849 387 928 q 188 619 217 769 q 213 389 159 468 q 397 309 267 309 q 526 333 463 309 q 651 405 590 357 l 720 759 l 1200 759 l 1183 672 l 805 672 l 761 448 l 1123 448 l 1106 361 l 744 361 l 691 86 l 1078 86 l 1061 0 l 572 0 l 630 298 "},"Ñ":{"x_min":37,"x_max":1001,"ha":1039,"o":"m 234 1013 l 418 1013 l 698 144 l 867 1013 l 1001 1013 l 804 0 l 619 0 l 339 873 l 170 0 l 37 0 l 234 1013 m 634 1160 l 610 1177 l 609 1178 q 554 1200 580 1200 q 513 1182 531 1200 q 482 1131 495 1165 l 398 1131 q 463 1242 421 1205 q 562 1280 505 1280 q 607 1272 586 1280 q 652 1248 627 1265 l 674 1230 q 699 1216 686 1220 q 725 1212 712 1212 q 771 1230 752 1212 q 798 1280 790 1248 l 883 1280 q 818 1168 860 1205 q 713 1131 775 1131 q 673 1138 692 1131 q 634 1160 655 1145 "},"F":{"x_min":37,"x_max":815,"ha":799,"o":"m 234 1013 l 815 1013 l 792 898 l 348 898 l 289 599 l 691 599 l 669 484 l 267 484 l 173 0 l 37 0 l 234 1013 "},"­":{"x_min":62,"x_max":450,"ha":501,"o":"m 84 436 l 450 436 l 428 325 l 62 325 l 84 436 "},":":{"x_min":72,"x_max":355.109375,"ha":468,"o":"m 212 718 l 355 718 l 321 546 l 179 546 l 212 718 m 106 172 l 248 172 l 214 0 l 72 0 l 106 172 "},"Ꙍ":{"x_min":49.515625,"x_max":1557.203125,"ha":1639,"o":"m 1540 345 q 1421 87 1509 181 q 1163 -19 1321 -19 q 1035 26 1101 -19 q 921 113 978 69 q 766 159 847 159 q 591 113 683 159 l 442 26 q 297 -19 359 -19 q 80 86 139 -19 q 49 229 49 144 q 61 345 49 282 q 163 632 88 479 q 337 895 242 792 l 506 895 q 313 658 406 823 q 202 381 225 505 q 193 302 193 337 q 332 160 193 160 q 496 197 425 160 q 612 266 554 231 q 794 303 688 303 q 961 266 900 303 q 1048 197 1005 231 q 1197 160 1104 160 q 1414 381 1371 160 q 1425 501 1425 438 q 1410 658 1425 575 q 1309 895 1380 823 l 1479 895 q 1551 632 1534 792 q 1557 520 1557 575 q 1540 345 1557 429 "},"Û":{"x_min":81,"x_max":990.46875,"ha":1017,"o":"m 215 1013 l 352 1013 l 233 397 q 223 328 226 355 q 220 281 220 302 q 272 139 220 188 q 425 91 324 91 q 629 162 556 91 q 733 397 702 234 l 852 1013 l 990 1013 l 868 380 q 716 77 828 175 q 409 -20 604 -20 q 169 56 258 -20 q 81 263 81 132 q 84 316 81 287 q 94 380 87 346 l 215 1013 m 576 1289 l 722 1289 l 830 1109 l 738 1109 l 643 1229 l 501 1109 l 399 1109 l 576 1289 "},"*":{"x_min":42,"x_max":653,"ha":695,"o":"m 653 845 l 409 714 l 653 581 l 613 515 l 386 652 l 386 397 l 309 397 l 309 652 l 81 515 l 42 581 l 285 714 l 42 845 l 81 913 l 309 775 l 309 1031 l 386 1031 l 386 775 l 613 913 l 653 845 "},"₫":{"x_min":64,"x_max":974.140625,"ha":884,"o":"m 580 113 q 461 13 530 47 q 310 -20 393 -20 q 130 57 196 -20 q 64 270 64 135 q 103 485 64 383 q 219 668 143 587 q 333 749 270 721 q 465 778 396 778 q 594 742 538 778 q 680 641 650 707 l 726 871 l 505 871 l 523 954 l 744 954 l 762 1055 l 888 1055 l 869 954 l 974 954 l 955 871 l 851 871 l 682 0 l 556 0 l 580 113 m 194 292 q 238 139 194 194 q 361 84 282 84 q 469 112 419 84 q 556 195 518 140 q 619 327 596 252 q 642 474 642 401 q 598 622 642 569 q 476 675 554 675 q 366 647 417 675 q 279 566 315 619 q 217 435 240 510 q 194 292 194 361 m 126 -118 l 532 -118 l 512 -218 l 107 -218 l 126 -118 "},"°":{"x_min":132,"x_max":562,"ha":695,"o":"m 347 943 q 255 905 292 943 q 218 813 218 867 q 255 722 218 759 q 347 686 292 686 q 438 722 401 686 q 476 813 476 759 q 438 905 476 867 q 347 943 400 943 m 347 1031 q 430 1014 390 1031 q 499 966 470 997 q 546 897 530 935 q 562 813 562 858 q 499 662 562 724 q 345 600 436 600 q 193 661 254 600 q 132 813 132 722 q 194 967 132 904 q 347 1031 256 1031 "},"V":{"x_min":109,"x_max":1031,"ha":950,"o":"m 286 0 l 109 1013 l 243 1013 l 390 141 l 881 1013 l 1031 1013 l 445 0 l 286 0 "},"å":{"x_min":57,"x_max":760,"ha":851,"o":"m 746 433 l 661 0 l 536 0 l 559 115 q 434 13 504 47 q 278 -20 364 -20 q 119 39 181 -20 q 57 191 57 98 q 163 402 57 325 q 455 480 269 480 l 629 480 l 636 513 q 638 525 637 518 q 639 544 639 531 q 589 638 639 605 q 451 672 540 672 q 326 656 390 672 q 194 610 262 641 l 216 725 q 354 764 287 751 q 485 778 422 778 q 689 719 619 778 q 760 550 760 661 q 756 497 760 527 q 746 433 753 467 m 611 382 l 486 382 q 259 340 333 382 q 186 213 186 299 q 223 119 186 153 q 327 86 261 86 q 505 158 429 86 q 605 354 581 231 l 611 382 m 730 1033 q 676 901 730 955 q 543 847 622 847 q 411 901 465 847 q 358 1033 358 955 q 411 1165 358 1111 q 543 1219 465 1219 q 676 1165 622 1219 q 730 1033 730 1111 m 647 1033 q 617 1106 647 1076 q 543 1136 587 1136 q 469 1107 498 1136 q 441 1033 441 1078 q 469 959 441 988 q 543 930 498 930 q 618 959 589 930 q 647 1033 647 988 "}," ":{"x_min":0,"x_max":0,"ha":442},"0":{"x_min":69,"x_max":814,"ha":884,"o":"m 530 1031 q 741 939 668 1031 q 814 676 814 847 q 779 417 814 545 q 683 186 745 288 q 535 32 620 85 q 347 -20 450 -20 q 141 72 214 -20 q 69 334 69 164 q 103 593 69 463 q 201 823 138 722 q 347 978 263 925 q 530 1031 431 1031 m 522 922 q 424 894 470 922 q 340 813 377 867 q 240 590 277 724 q 204 315 204 456 q 243 146 204 203 q 360 89 283 89 q 461 116 415 89 q 544 197 507 143 q 642 420 606 286 q 679 695 679 553 q 639 864 679 807 q 522 922 599 922 "},"¾":{"x_min":22,"x_max":1331.03125,"ha":1346,"o":"m 1197 481 l 930 200 l 1141 200 l 1197 481 m 1197 566 l 1310 566 l 1238 200 l 1331 200 l 1316 126 l 1224 126 l 1199 0 l 1103 0 l 1128 126 l 846 126 l 862 214 l 1197 566 m 145 1007 q 244 1025 201 1019 q 324 1031 287 1031 q 460 995 409 1031 q 511 901 511 959 q 472 810 511 849 q 368 759 433 772 q 445 717 418 749 q 473 636 473 685 q 397 496 473 550 q 196 443 321 443 q 109 450 153 443 q 22 471 65 457 l 38 553 q 112 525 74 534 q 193 517 150 517 q 323 548 276 517 q 371 635 371 579 q 338 698 371 677 q 238 720 305 720 l 180 720 l 195 793 l 258 793 q 366 817 327 793 q 405 885 405 841 q 377 939 405 921 q 293 957 349 957 q 213 949 255 957 q 130 929 171 942 l 145 1007 m 1031 1031 l 1152 1031 l 315 -20 l 193 -20 l 1031 1031 "},"@":{"x_min":81,"x_max":1320,"ha":1389,"o":"m 850 162 q 748 85 803 111 q 634 60 693 60 q 469 127 535 60 q 404 297 404 194 q 504 558 404 446 q 740 670 605 670 q 852 642 803 670 q 928 567 901 615 l 946 656 l 1043 656 l 946 156 q 1143 278 1066 174 q 1221 522 1221 381 q 1109 780 1221 680 q 819 881 997 881 q 586 838 698 881 q 387 718 473 796 q 233 508 288 627 q 179 264 179 389 q 297 -28 179 87 q 598 -144 415 -144 q 771 -114 686 -144 q 949 -22 856 -85 l 1004 -99 q 806 -204 913 -168 q 588 -240 700 -240 q 225 -94 370 -240 q 81 272 81 50 q 151 567 81 424 q 350 814 222 710 q 566 934 444 891 q 816 977 688 977 q 1177 848 1034 977 q 1320 527 1320 720 q 1182 194 1320 327 q 829 57 1044 61 l 850 162 m 742 574 q 579 498 646 574 q 513 317 513 422 q 551 198 513 241 q 658 156 590 156 q 820 233 755 156 q 885 422 885 310 q 846 533 885 492 q 742 574 807 574 "},"ö":{"x_min":64,"x_max":786,"ha":850,"o":"m 352 -20 q 141 62 219 -20 q 64 287 64 144 q 90 456 64 370 q 160 600 117 541 q 310 734 227 691 q 497 778 392 778 q 706 697 626 778 q 786 486 786 616 q 759 306 786 395 q 690 157 733 216 q 541 23 623 66 q 352 -20 458 -20 m 194 291 q 236 137 194 188 q 367 86 279 86 q 574 195 492 86 q 657 473 657 305 q 613 621 657 571 q 483 672 569 672 q 358 639 413 672 q 260 539 303 606 q 211 424 228 488 q 194 291 194 360 m 360 1053 l 499 1053 l 471 916 l 334 916 l 360 1053 m 625 1053 l 763 1053 l 736 916 l 599 916 l 625 1053 "},"i":{"x_min":49,"x_max":379.796875,"ha":386,"o":"m 255 1055 l 379 1055 l 349 897 l 224 897 l 255 1055 m 198 760 l 322 760 l 174 0 l 49 0 l 198 760 "},"₳":{"x_min":-88.171875,"x_max":877.625,"ha":884,"o":"m 47 576 l 63 659 l 269 659 l 461 1012 l 617 1012 l 671 659 l 877 659 l 861 576 l 684 576 l 705 436 l 834 436 l 817 352 l 718 352 l 772 0 l 630 0 l 583 352 l 239 352 l 56 0 l -88 0 l 103 352 l 4 352 l 20 436 l 148 436 l 225 576 l 47 576 m 356 576 l 283 436 l 571 436 l 553 576 l 356 576 m 399 659 l 541 659 l 512 877 l 399 659 "},"Õ":{"x_min":56,"x_max":1038,"ha":1093,"o":"m 633 920 q 435 865 521 920 q 285 698 349 810 q 223 547 244 627 q 202 385 202 467 q 269 167 202 244 q 460 91 336 91 q 658 146 571 91 q 807 310 745 201 q 870 464 848 384 q 892 625 892 545 q 824 842 892 765 q 633 920 756 920 m 456 -20 q 162 90 269 -20 q 56 393 56 201 q 97 617 56 503 q 212 822 139 732 q 404 979 298 927 q 637 1031 510 1031 q 930 921 823 1031 q 1038 622 1038 811 q 997 393 1038 505 q 880 188 956 280 q 689 31 793 83 q 456 -20 584 -20 m 692 1160 l 668 1177 l 667 1178 q 612 1200 638 1200 q 571 1182 589 1200 q 540 1131 553 1165 l 456 1131 q 521 1242 479 1205 q 620 1280 563 1280 q 665 1272 644 1280 q 710 1248 685 1265 l 732 1230 q 757 1216 744 1220 q 783 1212 770 1212 q 829 1230 810 1212 q 856 1280 848 1248 l 941 1280 q 876 1168 918 1205 q 771 1131 833 1131 q 731 1138 750 1131 q 692 1160 713 1145 "},"þ":{"x_min":-4,"x_max":818,"ha":882,"o":"m 689 468 q 645 620 689 567 q 520 674 602 674 q 414 645 465 674 q 324 562 363 616 q 262 432 285 508 q 239 281 239 356 q 283 135 239 186 q 406 84 326 84 q 516 111 465 84 q 602 192 566 139 q 665 323 641 248 q 689 468 689 399 m 302 644 q 420 744 352 710 q 572 778 488 778 q 753 701 689 778 q 818 487 818 625 q 777 272 818 374 q 662 89 737 170 q 549 8 612 36 q 416 -20 486 -20 q 280 13 335 -20 q 198 113 225 46 l 120 -289 l -4 -289 l 254 1055 l 378 1055 l 302 644 "},"]":{"x_min":-53,"x_max":475,"ha":542,"o":"m 475 1055 l 235 -183 l -53 -183 l -35 -86 l 127 -86 l 330 958 l 170 958 l 188 1055 l 475 1055 "},"m":{"x_min":49,"x_max":1258,"ha":1353,"o":"m 1247 458 l 1158 0 l 1033 0 l 1121 454 q 1129 504 1126 483 q 1132 540 1132 525 q 1098 635 1132 601 q 1003 669 1064 669 q 841 600 912 669 q 749 423 770 532 l 666 0 l 541 0 l 630 454 q 638 500 635 479 q 640 538 640 521 q 606 634 640 600 q 513 669 573 669 q 349 600 421 669 q 257 423 278 532 l 174 0 l 49 0 l 198 760 l 322 760 l 299 641 q 418 742 349 707 q 564 778 486 778 q 699 734 646 778 q 764 613 753 690 q 895 735 820 693 q 1054 778 970 778 q 1204 721 1151 778 q 1258 562 1258 665 q 1255 512 1258 539 q 1247 458 1252 486 "},"ꙅ":{"x_min":10.4375,"x_max":662.375,"ha":724,"o":"m 158 737 q 276 767 213 757 q 408 777 339 777 q 613 719 548 777 q 657 554 678 661 q 578 415 640 465 q 396 340 517 364 l 351 330 q 191 278 230 305 q 141 200 151 250 q 172 115 130 145 q 302 84 214 84 q 438 103 368 84 q 585 156 509 120 l 560 27 q 414 -8 482 4 q 284 -19 345 -19 q 66 42 138 -19 q 14 209 -5 103 q 99 354 33 302 q 303 434 165 406 l 348 444 q 491 491 453 466 q 537 559 529 516 q 507 644 548 616 q 373 673 466 673 q 252 659 312 673 q 135 619 193 646 l 158 737 "},"₥":{"x_min":52.21875,"x_max":1261.640625,"ha":1353,"o":"m 386 -128 l 271 -128 l 636 473 q 625 617 651 569 q 516 669 596 669 q 352 604 420 669 q 261 429 282 539 l 177 0 l 52 0 l 200 759 l 325 759 l 302 641 q 425 744 358 710 q 573 777 491 777 q 705 735 655 777 q 754 668 737 710 l 887 888 l 1002 888 l 914 743 q 1064 777 983 777 q 1231 694 1183 777 q 1250 458 1279 611 l 1161 0 l 1035 0 l 1123 454 q 1117 616 1145 563 q 1009 669 1088 669 q 843 604 912 669 q 752 429 774 540 l 669 0 l 543 0 l 581 193 l 386 -128 "},"8":{"x_min":46,"x_max":823,"ha":884,"o":"m 617 307 q 563 432 617 384 q 423 481 509 481 q 248 417 317 481 q 180 257 180 354 q 232 134 180 179 q 374 89 285 89 q 548 150 480 89 q 617 307 617 212 m 687 779 q 639 882 687 843 q 513 922 592 922 q 360 869 420 922 q 301 739 301 817 q 348 630 301 671 q 473 589 395 589 q 626 642 566 589 q 687 779 687 696 m 594 533 q 711 445 670 504 q 752 302 752 385 q 643 70 752 161 q 363 -20 535 -20 q 132 51 218 -20 q 46 242 46 123 q 119 435 46 351 q 312 543 193 520 q 204 619 241 567 q 167 743 167 670 q 268 948 167 866 q 527 1031 370 1031 q 740 964 658 1031 q 823 794 823 897 q 761 634 823 704 q 594 533 700 564 "},"₵":{"x_min":106.40625,"x_max":849.140625,"ha":891,"o":"m 849 805 l 821 661 q 721 763 773 732 q 601 793 670 793 l 464 88 q 596 119 533 88 q 735 221 659 149 l 707 78 q 570 4 637 29 q 443 -19 505 -18 l 408 -204 l 340 -204 l 376 -16 q 191 78 254 0 q 117 436 75 223 l 119 447 q 332 803 162 666 q 554 897 430 882 l 583 1055 l 652 1055 l 623 902 q 741 877 685 900 q 849 805 799 853 m 398 96 l 531 786 q 413 725 467 770 q 284 531 317 646 q 250 352 254 421 q 302 157 243 230 q 398 96 339 111 "},"R":{"x_min":37,"x_max":833,"ha":965,"o":"m 349 900 l 280 541 l 456 541 q 624 598 560 541 q 689 747 689 655 q 645 860 689 821 q 521 900 602 900 l 349 900 m 601 486 q 673 436 644 476 q 740 276 702 396 l 826 0 l 682 0 l 602 259 q 532 394 572 360 q 409 428 492 428 l 257 428 l 174 0 l 37 0 l 234 1013 l 543 1013 q 758 949 683 1013 q 833 766 833 886 q 769 583 833 660 q 601 486 705 506 "},"ꙭ":{"x_min":64.65625,"x_max":1351.09375,"ha":1415,"o":"m 1047 672 q 873 593 946 672 q 773 379 799 515 q 789 164 746 242 q 933 86 832 86 q 1106 164 1032 86 q 1206 379 1180 243 q 1189 593 1233 514 q 1047 672 1146 672 m 482 672 q 308 593 381 672 q 208 379 234 515 q 224 164 181 242 q 368 86 267 86 q 541 164 467 86 q 641 379 615 243 q 624 593 668 514 q 482 672 581 672 m 502 777 q 737 672 665 777 q 757 637 748 655 q 790 672 773 655 q 1067 777 904 777 q 1302 672 1230 777 q 1338 379 1375 566 q 1189 86 1302 192 q 912 -19 1075 -19 q 676 86 749 -19 q 657 121 666 103 q 623 86 641 103 q 347 -19 510 -19 q 112 86 184 -19 q 76 379 40 192 q 226 672 113 566 q 502 777 339 777 m 376 484 l 519 484 l 485 312 l 342 312 l 376 484 m 941 484 l 1084 484 l 1050 312 l 907 312 l 941 484 "},"á":{"x_min":57,"x_max":793,"ha":851,"o":"m 746 433 l 661 0 l 536 0 l 559 115 q 434 13 504 47 q 278 -20 364 -20 q 119 39 181 -20 q 57 191 57 98 q 163 402 57 325 q 455 480 269 480 l 629 480 l 636 513 q 638 525 637 518 q 639 544 639 531 q 589 638 639 605 q 451 672 540 672 q 326 656 390 672 q 194 610 262 641 l 216 725 q 354 764 287 751 q 485 778 422 778 q 689 719 619 778 q 760 550 760 661 q 756 497 760 527 q 746 433 753 467 m 611 382 l 486 382 q 259 340 333 382 q 186 213 186 299 q 223 119 186 153 q 327 86 261 86 q 505 158 429 86 q 605 354 581 231 l 611 382 m 658 1111 l 793 1111 l 522 856 l 418 856 l 658 1111 "},"×":{"x_min":191,"x_max":974,"ha":1164,"o":"m 974 745 l 664 434 l 974 125 l 893 43 l 582 354 l 271 43 l 191 125 l 500 434 l 191 745 l 271 828 l 582 516 l 893 828 l 974 745 "},"o":{"x_min":64,"x_max":786,"ha":850,"o":"m 352 -20 q 141 62 219 -20 q 64 287 64 144 q 90 456 64 370 q 160 600 117 541 q 310 734 227 691 q 497 778 392 778 q 706 697 626 778 q 786 486 786 616 q 759 306 786 395 q 690 157 733 216 q 541 23 623 66 q 352 -20 458 -20 m 194 291 q 236 137 194 188 q 367 86 279 86 q 574 195 492 86 q 657 473 657 305 q 613 621 657 571 q 483 672 569 672 q 358 639 413 672 q 260 539 303 606 q 211 424 228 488 q 194 291 194 360 "},"5":{"x_min":28,"x_max":806.96875,"ha":884,"o":"m 806 1013 l 785 899 l 367 899 l 318 648 q 381 663 349 658 q 447 668 413 668 q 668 592 587 668 q 750 388 750 517 q 708 215 750 298 q 590 70 666 132 q 457 3 535 26 q 286 -20 379 -20 q 161 -9 225 -20 q 28 23 97 1 l 53 151 q 178 105 115 120 q 304 90 240 90 q 523 169 437 90 q 610 368 610 248 q 553 505 610 456 q 394 554 496 554 q 283 541 341 554 q 164 504 225 529 l 262 1013 l 806 1013 "},"₩":{"x_min":59.6875,"x_max":1426.296875,"ha":1373,"o":"m 162 704 l 157 784 l 94 784 l 112 881 l 151 881 l 144 1012 l 282 1012 l 289 881 l 649 881 l 708 1012 l 862 1012 l 868 881 l 1228 881 l 1287 1012 l 1426 1012 l 1367 881 l 1405 881 l 1387 784 l 1324 784 l 1289 704 l 1372 704 l 1353 607 l 1245 607 l 975 0 l 803 0 l 773 607 l 640 607 l 373 0 l 201 0 l 167 607 l 59 607 l 78 704 l 162 704 m 884 607 l 908 156 l 1108 607 l 884 607 m 874 784 l 878 704 l 1150 704 l 1186 784 l 874 784 m 305 607 l 329 156 l 529 607 l 305 607 m 718 784 l 683 704 l 768 704 l 765 784 l 718 784 m 295 784 l 299 704 l 571 704 l 607 784 l 295 784 "},"õ":{"x_min":64,"x_max":791,"ha":850,"o":"m 352 -20 q 141 62 219 -20 q 64 287 64 144 q 90 456 64 370 q 160 600 117 541 q 310 734 227 691 q 497 778 392 778 q 706 697 626 778 q 786 486 786 616 q 759 306 786 395 q 690 157 733 216 q 541 23 623 66 q 352 -20 458 -20 m 194 291 q 236 137 194 188 q 367 86 279 86 q 574 195 492 86 q 657 473 657 305 q 613 621 657 571 q 483 672 569 672 q 358 639 413 672 q 260 539 303 606 q 211 424 228 488 q 194 291 194 360 m 535 929 l 504 966 q 485 984 495 977 q 463 993 474 990 q 419 968 436 993 q 390 888 402 943 l 306 888 q 370 1029 326 980 q 475 1079 413 1079 q 522 1068 500 1079 q 561 1037 544 1058 l 593 1000 q 611 983 601 989 q 633 974 620 977 q 676 998 659 974 q 706 1079 692 1022 l 791 1079 q 727 937 771 986 q 621 888 683 888 q 573 898 595 888 q 535 929 550 909 "},"₲":{"x_min":44.765625,"x_max":874.90625,"ha":884,"o":"m 395 -111 l 300 -111 l 319 -14 q 101 119 172 6 q 44 342 44 208 q 62 505 44 417 q 251 892 110 753 q 521 1026 366 1005 l 540 1123 l 635 1123 l 617 1030 q 748 1006 687 1027 q 874 934 819 982 l 846 788 q 728 885 794 853 q 595 918 668 915 l 435 92 q 533 105 488 94 q 628 144 584 118 l 680 416 l 599 416 l 621 529 l 817 529 l 733 94 q 568 9 655 37 q 413 -18 493 -15 l 395 -111 m 341 101 l 498 909 q 336 814 404 887 q 201 505 241 710 q 184 351 184 419 q 216 196 184 257 q 341 101 255 123 "},"7":{"x_min":129,"x_max":871,"ha":884,"o":"m 177 1013 l 871 1013 l 858 954 l 279 0 l 129 0 l 676 898 l 155 898 l 177 1013 "},"K":{"x_min":37,"x_max":1003,"ha":911,"o":"m 234 1013 l 371 1013 l 288 586 l 820 1013 l 1003 1013 l 400 529 l 841 0 l 674 0 l 269 493 l 174 0 l 37 0 l 234 1013 "},",":{"x_min":4,"x_max":268.109375,"ha":442,"o":"m 125 172 l 268 172 l 245 55 l 91 -162 l 4 -162 l 102 55 l 125 172 "},"d":{"x_min":64,"x_max":888,"ha":882,"o":"m 580 113 q 461 13 530 47 q 310 -20 393 -20 q 130 57 196 -20 q 64 270 64 135 q 103 485 64 383 q 219 668 143 587 q 333 749 270 721 q 465 778 396 778 q 594 742 538 778 q 680 641 650 707 l 762 1055 l 888 1055 l 682 0 l 556 0 l 580 113 m 194 292 q 238 139 194 194 q 361 84 282 84 q 469 112 419 84 q 556 195 518 140 q 619 327 596 252 q 642 474 642 401 q 598 622 642 569 q 476 675 554 675 q 366 647 417 675 q 279 566 315 619 q 217 435 240 510 q 194 292 194 361 "},"¨":{"x_min":256,"x_max":685,"ha":695,"o":"m 282 1053 l 421 1053 l 393 916 l 256 916 l 282 1053 m 547 1053 l 685 1053 l 658 916 l 521 916 l 547 1053 "},"Ô":{"x_min":56,"x_max":1038,"ha":1093,"o":"m 633 920 q 435 865 521 920 q 285 698 349 810 q 223 547 244 627 q 202 385 202 467 q 269 167 202 244 q 460 91 336 91 q 658 146 571 91 q 807 310 745 201 q 870 464 848 384 q 892 625 892 545 q 824 842 892 765 q 633 920 756 920 m 456 -20 q 162 90 269 -20 q 56 393 56 201 q 97 617 56 503 q 212 822 139 732 q 404 979 298 927 q 637 1031 510 1031 q 930 921 823 1031 q 1038 622 1038 811 q 997 393 1038 505 q 880 188 956 280 q 689 31 793 83 q 456 -20 584 -20 m 637 1289 l 783 1289 l 891 1109 l 799 1109 l 704 1229 l 562 1109 l 460 1109 l 637 1289 "},"E":{"x_min":37,"x_max":875,"ha":878,"o":"m 234 1013 l 875 1013 l 852 898 l 348 898 l 289 598 l 773 598 l 751 483 l 267 483 l 196 115 l 712 115 l 690 0 l 37 0 l 234 1013 "},"Y":{"x_min":88,"x_max":938.84375,"ha":848,"o":"m 88 1013 l 234 1013 l 424 596 l 784 1013 l 938 1013 l 479 482 l 386 0 l 249 0 l 342 482 l 88 1013 "},"\"":{"x_min":134,"x_max":505,"ha":639,"o":"m 249 1013 l 249 637 l 134 637 l 134 1013 l 249 1013 m 505 1013 l 505 637 l 390 637 l 390 1013 l 505 1013 "},"ê":{"x_min":64,"x_max":793,"ha":855,"o":"m 667 448 q 670 470 669 458 q 672 493 672 481 q 623 623 672 575 q 491 672 575 672 q 327 613 398 672 q 219 447 256 554 l 667 448 m 776 350 l 195 350 q 190 309 191 324 q 189 283 189 294 q 247 137 189 189 q 410 86 305 86 q 564 104 492 86 q 699 158 637 122 l 676 35 q 537 -6 608 7 q 392 -20 465 -20 q 149 55 234 -20 q 64 270 64 131 q 106 491 64 389 q 230 673 148 593 q 356 750 283 723 q 511 778 429 778 q 716 700 640 778 q 793 493 793 623 q 788 426 793 461 q 776 350 784 390 m 520 1111 l 620 1111 l 737 856 l 642 856 l 556 1016 l 398 856 l 304 856 l 520 1111 "},"Ï":{"x_min":37,"x_max":543,"ha":410,"o":"m 234 1013 l 371 1013 l 174 0 l 37 0 l 234 1013 m 141 1269 l 280 1269 l 252 1131 l 115 1131 l 141 1269 m 406 1269 l 543 1269 l 517 1131 l 380 1131 l 406 1269 "},"Â":{"x_min":-74,"x_max":854,"ha":950,"o":"m 511 1013 l 666 1013 l 854 0 l 710 0 l 668 260 l 213 260 l 70 0 l -74 0 l 511 1013 m 560 878 l 276 374 l 647 374 l 560 878 m 554 1289 l 700 1289 l 808 1109 l 716 1109 l 621 1229 l 479 1109 l 377 1109 l 554 1289 "},"Í":{"x_min":37,"x_max":531,"ha":410,"o":"m 234 1013 l 371 1013 l 174 0 l 37 0 l 234 1013 m 390 1288 l 531 1288 l 323 1109 l 216 1109 l 390 1288 "},"´":{"x_min":350,"x_max":725,"ha":695,"o":"m 590 1111 l 725 1111 l 454 856 l 350 856 l 590 1111 "},"ì":{"x_min":49,"x_max":364,"ha":386,"o":"m 198 760 l 322 760 l 174 0 l 49 0 l 198 760 m 222 1111 l 364 857 l 259 857 l 89 1111 l 222 1111 "},"±":{"x_min":147,"x_max":1017,"ha":1164,"o":"m 639 870 l 639 608 l 1017 608 l 1017 493 l 639 493 l 639 231 l 525 231 l 525 493 l 147 493 l 147 608 l 525 608 l 525 870 l 639 870 m 147 115 l 1017 115 l 1017 0 l 147 0 l 147 115 "},"Ú":{"x_min":81,"x_max":990.46875,"ha":1017,"o":"m 215 1013 l 352 1013 l 233 397 q 223 328 226 355 q 220 281 220 302 q 272 139 220 188 q 425 91 324 91 q 629 162 556 91 q 733 397 702 234 l 852 1013 l 990 1013 l 868 380 q 716 77 828 175 q 409 -20 604 -20 q 169 56 258 -20 q 81 263 81 132 q 84 316 81 287 q 94 380 87 346 l 215 1013 m 693 1288 l 834 1288 l 626 1109 l 519 1109 l 693 1288 "},"|":{"x_min":176,"x_max":291,"ha":468,"o":"m 291 1061 l 291 -328 l 176 -328 l 176 1061 l 291 1061 "},"§":{"x_min":16.234375,"x_max":673.65625,"ha":695,"o":"m 407 278 q 492 349 463 311 q 522 425 522 386 q 485 500 522 462 q 352 600 449 538 l 298 635 q 214 562 243 600 q 186 486 186 524 q 214 419 186 452 q 328 330 243 386 l 407 278 m 673 992 l 651 881 q 556 920 603 907 q 470 933 510 933 q 355 900 400 933 q 311 818 311 867 q 402 703 311 764 q 434 682 422 690 l 494 642 q 606 544 577 584 q 635 457 635 504 q 590 327 635 388 q 467 230 545 266 q 509 176 495 206 q 523 108 523 145 q 440 -64 523 2 q 223 -132 358 -132 q 124 -122 176 -132 q 16 -93 71 -112 l 37 18 q 138 -20 89 -7 q 227 -34 187 -34 q 348 -1 303 -34 q 394 83 394 30 q 272 231 394 150 l 262 238 l 211 273 q 99 368 127 330 q 72 457 72 407 q 115 581 72 522 q 238 682 158 639 q 196 735 209 708 q 183 797 183 763 q 265 964 183 897 q 474 1031 347 1031 q 572 1021 523 1031 q 673 992 621 1011 "},"Ý":{"x_min":88,"x_max":938.84375,"ha":848,"o":"m 88 1013 l 234 1013 l 424 596 l 784 1013 l 938 1013 l 479 482 l 386 0 l 249 0 l 342 482 l 88 1013 m 610 1288 l 751 1288 l 543 1109 l 436 1109 l 610 1288 "},"b":{"x_min":50,"x_max":815,"ha":882,"o":"m 687 463 q 642 618 687 562 q 517 674 597 674 q 409 645 460 674 q 322 563 359 617 q 260 433 282 507 q 237 284 237 358 q 281 137 237 190 q 404 84 326 84 q 513 111 463 84 q 601 192 563 139 q 663 322 639 248 q 687 463 687 396 m 299 644 q 415 742 346 706 q 560 778 484 778 q 746 699 677 778 q 815 486 815 620 q 774 273 815 376 q 659 89 734 170 q 547 8 610 37 q 413 -20 483 -20 q 285 13 339 -20 q 197 114 231 47 l 175 0 l 50 0 l 256 1055 l 380 1055 l 299 644 "},"q":{"x_min":64,"x_max":830,"ha":882,"o":"m 579 113 q 461 13 529 47 q 310 -20 393 -20 q 129 57 194 -20 q 64 271 64 135 q 104 484 64 381 q 220 668 144 586 q 332 749 268 721 q 465 778 395 778 q 603 744 549 778 q 682 644 658 711 l 704 758 l 830 758 l 627 -286 l 501 -286 l 579 113 m 194 289 q 236 136 194 189 q 357 84 278 84 q 558 197 475 84 q 641 472 641 310 q 598 622 641 570 q 475 674 555 674 q 366 646 416 674 q 278 565 315 618 q 216 435 239 510 q 194 289 194 360 "},"Ö":{"x_min":56,"x_max":1038,"ha":1093,"o":"m 633 920 q 435 865 521 920 q 285 698 349 810 q 223 547 244 627 q 202 385 202 467 q 269 167 202 244 q 460 91 336 91 q 658 146 571 91 q 807 310 745 201 q 870 464 848 384 q 892 625 892 545 q 824 842 892 765 q 633 920 756 920 m 456 -20 q 162 90 269 -20 q 56 393 56 201 q 97 617 56 503 q 212 822 139 732 q 404 979 298 927 q 637 1031 510 1031 q 930 921 823 1031 q 1038 622 1038 811 q 997 393 1038 505 q 880 188 956 280 q 689 31 793 83 q 456 -20 584 -20 m 505 1269 l 644 1269 l 616 1131 l 479 1131 l 505 1269 m 770 1269 l 907 1269 l 881 1131 l 744 1131 l 770 1269 "},"z":{"x_min":-4,"x_max":754,"ha":729,"o":"m 161 760 l 754 760 l 731 646 l 160 100 l 631 100 l 612 0 l -4 0 l 18 113 l 589 660 l 141 660 l 161 760 "},"":{"x_min":37.296875,"x_max":798.953125,"ha":850,"o":"m 454 672 q 281 593 354 672 q 181 379 207 515 q 170 269 170 326 q 197 164 170 212 q 340 86 240 86 q 514 164 440 86 q 614 378 588 243 q 624 486 624 430 q 598 592 624 543 q 454 672 554 672 m 454 1055 l 798 1055 l 779 955 l 459 955 q 314 862 331 955 q 311 843 311 852 q 344 793 311 809 q 476 777 377 777 q 710 672 636 777 q 758 495 758 601 q 746 379 758 442 q 596 86 710 193 q 320 -19 482 -19 q 85 86 157 -19 q 37 263 37 157 q 49 379 37 316 q 246 710 93 604 q 177 847 177 756 q 179 870 177 859 q 271 1005 196 954 q 454 1055 347 1055 "},"ꚍ":{"x_min":94.953125,"x_max":842.359375,"ha":809,"o":"m 114 759 l 842 759 l 822 659 l 518 659 l 443 275 q 442 138 423 171 q 533 105 461 105 l 566 105 l 545 0 l 498 0 q 333 65 375 0 q 318 275 290 130 l 393 659 l 94 659 l 114 759 "},"Ꚋ":{"x_min":59.6875,"x_max":1004.453125,"ha":1118,"o":"m 82 1012 l 938 1012 l 916 897 l 555 897 l 497 597 l 779 597 q 966 516 905 597 q 1004 381 1004 466 q 993 278 1004 334 l 953 70 q 832 -195 918 -111 q 592 -278 747 -278 l 541 -278 l 563 -162 l 605 -162 q 744 -111 696 -162 q 817 70 791 -62 l 855 267 q 863 345 863 309 q 845 428 863 396 q 729 482 814 482 l 475 482 l 381 0 l 244 0 l 417 897 l 59 897 l 82 1012 "},"ã":{"x_min":57,"x_max":781,"ha":851,"o":"m 746 433 l 661 0 l 536 0 l 559 115 q 434 13 504 47 q 278 -20 364 -20 q 119 39 181 -20 q 57 191 57 98 q 163 402 57 325 q 455 480 269 480 l 629 480 l 636 513 q 638 525 637 518 q 639 544 639 531 q 589 638 639 605 q 451 672 540 672 q 326 656 390 672 q 194 610 262 641 l 216 725 q 354 764 287 751 q 485 778 422 778 q 689 719 619 778 q 760 550 760 661 q 756 497 760 527 q 746 433 753 467 m 611 382 l 486 382 q 259 340 333 382 q 186 213 186 299 q 223 119 186 153 q 327 86 261 86 q 505 158 429 86 q 605 354 581 231 l 611 382 m 525 929 l 494 966 q 475 984 485 977 q 453 993 464 990 q 409 968 426 993 q 380 888 392 943 l 296 888 q 360 1029 316 980 q 465 1079 403 1079 q 512 1068 490 1079 q 551 1037 534 1058 l 583 1000 q 601 983 591 989 q 623 974 610 977 q 666 998 649 974 q 696 1079 682 1022 l 781 1079 q 717 937 761 986 q 611 888 673 888 q 563 898 585 888 q 525 929 540 909 "},"æ":{"x_min":57,"x_max":1321,"ha":1382,"o":"m 1195 448 q 1198 470 1197 458 q 1200 493 1200 481 q 1151 623 1200 575 q 1019 672 1103 672 q 854 613 926 672 q 747 447 783 554 l 1195 448 m 216 725 q 354 764 286 751 q 484 778 421 778 q 645 747 582 778 q 738 654 708 716 q 873 746 797 715 q 1038 778 949 778 q 1244 700 1167 778 q 1321 493 1321 623 q 1316 426 1321 461 q 1304 350 1312 390 l 723 350 q 717 309 719 324 q 716 283 716 294 q 774 137 716 189 q 938 86 832 86 q 1092 104 1019 86 q 1227 158 1165 122 l 1204 35 q 1065 -6 1136 7 q 919 -20 993 -20 q 728 19 805 -20 q 613 134 651 58 q 469 17 544 54 q 305 -20 395 -20 q 122 35 187 -20 q 57 191 57 91 q 163 402 57 325 q 455 480 269 480 l 629 480 l 636 513 q 638 525 637 518 q 638 544 638 531 q 589 638 638 605 q 451 672 540 672 q 326 656 390 672 q 194 610 262 641 l 216 725 m 611 382 l 486 382 q 259 340 333 382 q 186 213 186 299 q 223 119 186 153 q 327 86 261 86 q 505 158 429 86 q 605 354 581 231 l 611 382 "},"®":{"x_min":192,"x_max":1199,"ha":1389,"o":"m 695 937 q 529 905 606 937 q 389 809 453 873 q 292 668 325 745 q 260 502 260 590 q 292 337 260 414 q 389 197 325 260 q 529 101 453 133 q 695 69 606 69 q 862 101 785 69 q 1003 197 939 133 q 1098 336 1066 260 q 1130 502 1130 413 q 1098 669 1130 592 q 1003 809 1066 746 q 862 905 939 873 q 695 937 785 937 m 695 1007 q 888 969 798 1007 q 1051 858 977 932 q 1162 695 1125 784 q 1199 502 1199 606 q 1162 310 1199 399 q 1051 148 1125 222 q 888 37 977 74 q 695 0 798 0 q 502 37 592 0 q 339 148 413 74 q 228 310 265 222 q 192 502 192 399 q 228 695 192 606 q 339 858 265 784 q 502 969 413 932 q 695 1007 592 1007 m 676 726 l 593 726 l 593 539 l 676 539 q 781 560 751 539 q 811 631 811 581 q 781 704 811 683 q 676 726 751 726 m 681 796 q 860 755 801 796 q 920 633 920 715 q 884 536 920 574 q 783 487 848 498 q 822 455 799 481 q 876 379 845 429 l 970 229 l 852 229 l 764 370 q 699 452 724 435 q 637 470 674 470 l 593 470 l 593 229 l 488 229 l 488 796 l 681 796 "},"É":{"x_min":37,"x_max":875,"ha":878,"o":"m 234 1013 l 875 1013 l 852 898 l 348 898 l 289 598 l 773 598 l 751 483 l 267 483 l 196 115 l 712 115 l 690 0 l 37 0 l 234 1013 m 632 1288 l 773 1288 l 565 1109 l 458 1109 l 632 1288 "},"~":{"x_min":147,"x_max":1016,"ha":1164,"o":"m 1016 554 l 1016 433 q 884 356 944 379 q 757 334 823 334 q 584 373 683 334 q 573 377 576 376 q 558 383 568 379 q 389 425 453 425 q 271 398 330 425 q 147 316 213 372 l 147 437 q 278 514 218 491 q 405 538 339 538 q 579 497 479 538 q 589 493 586 494 q 604 487 595 491 q 773 446 709 446 q 888 471 831 446 q 1016 554 946 497 "},"³":{"x_min":22,"x_max":511,"ha":557,"o":"m 145 1007 q 244 1025 201 1019 q 324 1031 287 1031 q 460 995 409 1031 q 511 901 511 959 q 472 810 511 849 q 368 759 433 772 q 445 717 418 749 q 473 636 473 685 q 397 496 473 550 q 196 443 321 443 q 109 450 153 443 q 22 471 65 457 l 38 553 q 112 525 74 534 q 193 517 150 517 q 323 548 276 517 q 371 635 371 579 q 338 698 371 677 q 238 720 305 720 l 180 720 l 195 793 l 258 793 q 366 817 327 793 q 405 885 405 841 q 377 939 405 921 q 293 957 349 957 q 213 949 255 957 q 130 929 171 942 l 145 1007 "},"₧":{"x_min":37.296875,"x_max":1735.578125,"ha":1765,"o":"m 349 900 l 276 519 l 448 519 q 628 579 565 519 q 690 750 690 638 q 648 860 690 821 q 529 900 605 900 l 349 900 m 824 662 q 727 499 801 563 q 426 406 620 406 l 254 406 l 174 0 l 37 0 l 234 1012 l 551 1012 q 762 948 689 1012 q 834 759 834 883 l 913 759 l 955 975 l 1080 975 l 1039 759 l 1288 759 l 1282 727 q 1499 777 1367 777 q 1619 767 1561 777 q 1735 737 1678 757 l 1711 619 q 1607 659 1662 646 q 1494 673 1552 673 q 1339 639 1395 673 q 1282 548 1282 606 q 1414 445 1282 481 q 1429 441 1424 442 l 1469 429 q 1635 356 1593 394 q 1677 252 1677 318 q 1581 56 1677 132 q 1330 -19 1485 -19 q 1203 -8 1269 -19 q 1147 3 1176 -3 l 1146 0 l 1027 0 q 861 43 916 0 q 807 174 807 86 q 809 209 807 190 q 815 250 811 227 l 895 662 l 824 662 m 1207 662 l 1020 662 l 940 250 q 933 211 935 227 q 931 187 931 196 q 957 124 931 143 q 1041 104 984 104 l 1070 104 l 1081 156 q 1216 103 1149 121 q 1343 84 1282 84 q 1492 124 1435 84 q 1549 223 1549 163 q 1399 328 1549 288 l 1386 332 l 1343 343 q 1204 409 1248 368 q 1160 514 1160 450 q 1207 662 1160 601 "},"¡":{"x_min":118,"x_max":453.03125,"ha":557,"o":"m 255 0 l 118 0 l 204 444 l 265 687 l 375 687 l 341 444 l 255 0 m 417 841 l 281 841 l 314 1013 l 453 1013 l 417 841 "},"Ꚍ":{"x_min":59.6875,"x_max":938.65625,"ha":848,"o":"m 82 1012 l 938 1012 l 916 897 l 554 897 l 447 348 q 449 166 421 217 q 567 115 476 115 l 610 115 l 588 0 l 535 0 q 328 82 381 0 q 310 348 274 164 l 417 897 l 59 897 l 82 1012 "},"ꙩ":{"x_min":64,"x_max":786,"ha":850,"o":"m 376 484 l 519 484 l 485 312 l 342 312 l 376 484 m 352 -20 q 141 62 219 -20 q 64 287 64 144 q 90 456 64 370 q 160 600 117 541 q 310 734 227 691 q 497 778 392 778 q 706 697 626 778 q 786 486 786 616 q 759 306 786 395 q 690 157 733 216 q 541 23 623 66 q 352 -20 458 -20 m 194 291 q 236 137 194 188 q 367 86 279 86 q 574 195 492 86 q 657 473 657 305 q 613 621 657 571 q 483 672 569 672 q 358 639 413 672 q 260 539 303 606 q 211 424 228 488 q 194 291 194 360 "},"[":{"x_min":56,"x_max":584,"ha":542,"o":"m 296 1055 l 584 1055 l 564 958 l 402 958 l 199 -86 l 362 -86 l 344 -183 l 56 -183 l 296 1055 "},"L":{"x_min":37,"x_max":690,"ha":774,"o":"m 233 1013 l 370 1013 l 197 114 l 690 114 l 667 0 l 37 0 l 233 1013 "}," ":{"x_min":0,"x_max":0,"ha":442},"ꙫ":{"x_min":66.421875,"x_max":924.0625,"ha":990,"o":"m 321 484 l 464 484 l 431 311 l 288 311 l 321 484 m 565 484 l 708 484 l 675 311 l 532 311 l 565 484 m 552 672 q 327 593 419 672 q 208 379 235 515 q 243 164 182 242 q 438 86 304 86 q 661 164 569 86 q 780 379 754 243 q 745 593 807 514 q 552 672 683 672 m 572 777 q 858 672 767 777 q 913 379 950 566 q 745 86 877 192 q 417 -19 613 -19 q 131 86 221 -19 q 76 379 40 192 q 244 672 113 566 q 572 777 376 777 "},"%":{"x_min":126,"x_max":1193,"ha":1320,"o":"m 325 480 q 179 539 233 480 q 126 702 126 599 q 204 940 126 849 q 408 1031 282 1031 q 554 970 500 1031 q 608 805 608 909 q 529 570 608 660 q 325 480 451 480 m 499 801 q 472 909 499 873 q 394 945 446 945 q 277 879 319 945 q 235 696 235 813 q 262 599 235 633 q 339 566 289 566 q 455 630 411 566 q 499 801 499 694 m 1084 301 q 1058 410 1084 374 q 980 446 1032 446 q 862 379 905 446 q 819 196 819 313 q 846 99 819 133 q 924 66 873 66 q 1040 130 997 66 q 1084 301 1084 194 m 910 -20 q 764 40 818 -20 q 711 203 711 100 q 789 440 711 350 q 994 531 867 531 q 1139 471 1086 531 q 1193 308 1193 411 q 1114 71 1193 162 q 910 -20 1036 -20 m 1141 1031 l 304 -20 l 196 -20 l 1033 1031 l 1141 1031 "},"P":{"x_min":37,"x_max":835,"ha":838,"o":"m 234 1013 l 551 1013 q 762 948 689 1013 q 835 759 835 884 q 727 499 835 592 q 426 407 620 407 l 253 407 l 174 0 l 37 0 l 234 1013 m 349 900 l 276 520 l 448 520 q 628 579 565 520 q 691 750 691 639 q 648 860 691 821 q 529 900 605 900 l 349 900 "},"À":{"x_min":-74,"x_max":854,"ha":950,"o":"m 511 1013 l 666 1013 l 854 0 l 710 0 l 668 260 l 213 260 l 70 0 l -74 0 l 511 1013 m 560 878 l 276 374 l 647 374 l 560 878 m 586 1288 l 687 1109 l 591 1109 l 463 1288 l 586 1288 "},"_":{"x_min":-14,"x_max":708,"ha":695,"o":"m 708 -231 l 708 -328 l -14 -328 l -14 -231 l 708 -231 "},"ñ":{"x_min":49,"x_max":806,"ha":880,"o":"m 773 458 l 685 0 l 559 0 l 648 453 q 657 509 654 485 q 661 548 661 534 q 625 637 661 605 q 524 669 589 669 q 351 602 424 669 q 257 420 279 535 l 173 0 l 49 0 l 196 760 l 320 760 l 295 639 q 421 741 347 705 q 575 778 494 778 q 730 723 675 778 q 786 570 786 669 q 782 518 786 546 q 773 458 779 490 m 550 929 l 519 966 q 500 984 510 977 q 478 993 489 990 q 434 968 451 993 q 405 888 417 943 l 321 888 q 385 1029 341 980 q 490 1079 428 1079 q 537 1068 515 1079 q 576 1037 559 1058 l 608 1000 q 626 983 616 989 q 648 974 635 977 q 691 998 674 974 q 721 1079 707 1022 l 806 1079 q 742 937 786 986 q 636 888 698 888 q 588 898 610 888 q 550 929 565 909 "},"+":{"x_min":147,"x_max":1017,"ha":1164,"o":"m 639 871 l 639 493 l 1017 493 l 1017 378 l 639 378 l 639 0 l 525 0 l 525 378 l 147 378 l 147 493 l 525 493 l 525 871 l 639 871 "},"½":{"x_min":91.5,"x_max":1323,"ha":1346,"o":"m 105 528 l 244 528 l 324 942 l 169 914 l 184 993 l 340 1019 l 438 1019 l 342 528 l 481 528 l 466 453 l 91 453 l 105 528 m 1031 1031 l 1152 1031 l 315 -20 l 193 -20 l 1031 1031 m 1235 286 l 974 77 l 1273 77 l 1257 0 l 839 0 l 853 74 l 1139 305 q 1199 365 1179 336 q 1219 421 1219 394 q 1190 481 1219 458 q 1114 504 1162 504 q 1032 492 1077 504 q 931 457 988 481 l 948 540 q 1046 568 1000 559 q 1135 578 1092 578 q 1271 539 1219 578 q 1323 440 1323 500 q 1301 359 1323 398 q 1235 286 1279 321 "},"Ꙧ":{"x_min":37.296875,"x_max":1653.5,"ha":1198,"o":"m 234 1012 l 440 1012 l 558 330 l 950 1012 l 1653 1012 l 1631 897 l 1138 897 l 963 0 l 830 0 l 1003 887 l 605 194 l 472 194 l 343 890 l 170 0 l 37 0 l 234 1012 "},"Æ":{"x_min":-62,"x_max":1381,"ha":1353,"o":"m 632 906 l 304 374 l 615 374 l 719 906 l 632 906 m 1381 1013 l 1358 898 l 856 898 l 796 598 l 1279 598 l 1256 483 l 773 483 l 702 115 l 1218 115 l 1195 0 l 543 0 l 592 260 l 236 260 l 76 0 l -62 0 l 558 1013 l 1381 1013 "},"ꙍ":{"x_min":84.78125,"x_max":1330,"ha":1428,"o":"m 1296 654 q 1330 423 1330 537 q 1315 273 1330 347 q 988 -19 1258 -19 q 845 56 931 -19 q 677 133 758 133 q 479 56 596 133 q 307 -19 362 -19 q 84 179 84 -19 q 94 274 84 222 q 262 654 130 461 l 396 654 q 221 263 254 432 q 214 201 214 228 q 328 86 214 86 q 427 124 370 86 q 536 193 520 185 q 696 231 611 231 q 843 193 781 231 q 925 124 854 185 q 1009 86 967 86 q 1185 264 1150 86 q 1197 396 1197 326 q 1162 654 1197 514 l 1296 654 "},"₣":{"x_min":44.078125,"x_max":912.203125,"ha":884,"o":"m 188 276 l 331 1012 l 912 1012 l 889 897 l 445 897 l 387 598 l 788 598 l 766 483 l 364 483 l 324 276 l 469 276 l 449 176 l 305 176 l 270 0 l 134 0 l 168 176 l 44 176 l 63 276 l 188 276 "},"Ë":{"x_min":37,"x_max":875,"ha":878,"o":"m 234 1013 l 875 1013 l 852 898 l 348 898 l 289 598 l 773 598 l 751 483 l 267 483 l 196 115 l 712 115 l 690 0 l 37 0 l 234 1013 m 383 1269 l 522 1269 l 494 1131 l 357 1131 l 383 1269 m 648 1269 l 785 1269 l 759 1131 l 622 1131 l 648 1269 "},"'":{"x_min":134,"x_max":249,"ha":382,"o":"m 249 1013 l 249 637 l 134 637 l 134 1013 l 249 1013 "},"ª":{"x_min":55.625,"x_max":619,"ha":654,"o":"m 402 748 q 248 722 296 748 q 200 641 200 697 q 225 577 200 601 q 295 554 251 554 q 427 599 373 554 q 498 728 480 645 l 502 748 l 402 748 m 612 789 l 552 486 l 451 486 l 466 562 q 375 495 427 517 q 258 473 323 473 q 141 514 185 473 q 97 623 97 555 q 175 772 97 718 q 394 826 253 826 l 518 826 l 518 828 q 520 848 519 841 q 521 860 521 856 q 489 930 521 908 q 390 953 457 953 q 293 941 342 953 q 194 907 244 930 l 210 993 q 315 1021 264 1012 q 413 1031 367 1031 q 567 988 515 1031 q 619 864 619 946 q 617 827 619 846 q 612 789 615 809 m 70 401 l 537 401 l 522 318 l 55 318 l 70 401 "},"Ꚕ":{"x_min":165.484375,"x_max":927.125,"ha":952,"o":"m 446 737 l 419 597 l 701 597 q 889 516 828 597 q 927 381 927 466 q 916 278 927 334 l 862 0 l 726 0 l 777 267 q 786 344 786 309 q 767 428 786 396 q 651 482 735 482 l 396 482 l 303 0 l 165 0 l 308 737 q 404 947 337 881 q 595 1012 472 1012 l 767 1012 l 747 906 l 602 906 q 498 873 531 906 q 446 737 466 841 "},"₭":{"x_min":37.296875,"x_max":1003.09375,"ha":911,"o":"m 150 581 l 234 1012 l 372 1012 l 288 585 l 820 1012 l 1003 1012 l 467 581 l 779 581 l 779 504 l 421 504 l 841 0 l 674 0 l 270 493 l 174 0 l 37 0 l 135 504 l 58 504 l 58 581 l 150 581 "},"ð":{"x_min":62,"x_max":815.234375,"ha":850,"o":"m 689 774 q 758 629 735 704 q 782 474 782 554 q 755 296 782 382 q 677 142 728 210 q 537 22 620 64 q 356 -20 454 -20 q 142 59 222 -20 q 62 271 62 139 q 89 433 62 353 q 169 582 117 513 q 311 702 229 660 q 487 745 393 745 q 520 743 501 745 q 567 738 540 741 l 483 860 l 245 787 l 223 851 l 445 916 l 351 1055 l 498 1055 l 563 956 l 791 1030 l 815 966 l 603 900 l 689 774 m 619 620 q 560 637 590 632 q 501 643 531 643 q 278 540 364 643 q 192 276 192 438 q 236 134 192 183 q 367 86 280 86 q 573 195 490 86 q 656 470 656 305 q 647 553 656 516 q 619 620 638 590 "},"T":{"x_min":60,"x_max":939,"ha":848,"o":"m 82 1013 l 939 1013 l 917 898 l 555 898 l 381 0 l 244 0 l 418 898 l 60 898 l 82 1013 "},"ꙧ":{"x_min":52.21875,"x_max":1405.953125,"ha":1400,"o":"m 200 759 l 382 759 l 499 250 l 814 759 l 1405 759 l 1386 659 l 975 659 l 847 0 l 722 0 l 847 639 l 541 145 l 416 145 l 302 640 l 177 0 l 52 0 l 200 759 "},"Þ":{"x_min":37,"x_max":801,"ha":844,"o":"m 392 230 l 219 230 l 174 0 l 37 0 l 234 1013 l 371 1013 l 337 834 l 517 834 q 728 769 656 834 q 801 581 801 705 q 693 322 801 414 q 392 230 586 230 m 316 721 l 242 343 l 414 343 q 594 402 531 343 q 657 572 657 461 q 614 682 657 643 q 495 721 572 721 l 316 721 "},"₮":{"x_min":59.6875,"x_max":938.65625,"ha":848,"o":"m 349 545 l 417 897 l 59 897 l 82 1012 l 938 1012 l 916 897 l 555 897 l 504 635 l 618 701 l 622 649 l 493 574 l 475 483 l 599 555 l 603 503 l 463 422 l 381 0 l 244 0 l 308 333 l 199 269 l 195 322 l 320 394 l 337 484 l 218 415 l 214 467 l 349 545 "},"j":{"x_min":-156.671875,"x_max":383.796875,"ha":386,"o":"m 201 760 l 325 760 l 175 -13 l 175 -16 q 117 -194 150 -146 q 28 -264 87 -240 q -109 -289 -29 -289 l -156 -289 l -136 -183 l -104 -183 q 0 -152 -31 -183 q 51 -13 30 -121 l 201 760 m 259 1055 l 383 1055 l 353 897 l 228 897 l 259 1055 "},"1":{"x_min":68,"x_max":673.21875,"ha":884,"o":"m 90 115 l 314 115 l 465 895 l 212 846 l 236 964 l 487 1013 l 625 1013 l 450 115 l 673 115 l 651 0 l 68 0 l 90 115 "},"₡":{"x_min":58.328125,"x_max":883.046875,"ha":884,"o":"m 691 1021 q 746 1007 720 1015 q 757 1003 746 1007 l 792 1080 l 883 1080 l 831 967 q 877 934 854 952 l 852 790 q 780 855 817 828 l 433 91 l 441 91 q 604 121 526 91 q 757 212 682 151 l 728 50 q 581 -2 655 15 q 432 -19 506 -19 q 383 -16 406 -19 l 364 -60 l 274 -60 l 300 -1 q 238 23 267 8 l 200 -61 l 109 -61 l 170 72 q 157 86 163 79 q 58 380 58 191 q 95 617 58 501 q 204 830 133 734 q 374 982 278 933 q 598 1030 470 1030 l 605 1030 l 628 1080 l 718 1080 l 691 1021 m 554 918 q 401 864 468 911 q 264 694 321 808 q 207 539 227 621 q 188 375 188 457 q 227 199 188 267 l 554 918 m 708 895 q 643 914 676 908 l 288 132 q 348 104 315 114 l 708 895 "},"ä":{"x_min":57,"x_max":760,"ha":851,"o":"m 746 433 l 661 0 l 536 0 l 559 115 q 434 13 504 47 q 278 -20 364 -20 q 119 39 181 -20 q 57 191 57 98 q 163 402 57 325 q 455 480 269 480 l 629 480 l 636 513 q 638 525 637 518 q 639 544 639 531 q 589 638 639 605 q 451 672 540 672 q 326 656 390 672 q 194 610 262 641 l 216 725 q 354 764 287 751 q 485 778 422 778 q 689 719 619 778 q 760 550 760 661 q 756 497 760 527 q 746 433 753 467 m 611 382 l 486 382 q 259 340 333 382 q 186 213 186 299 q 223 119 186 153 q 327 86 261 86 q 505 158 429 86 q 605 354 581 231 l 611 382 m 350 1053 l 489 1053 l 461 916 l 324 916 l 350 1053 m 615 1053 l 753 1053 l 726 916 l 589 916 l 615 1053 "},"<":{"x_min":147,"x_max":1016,"ha":1164,"o":"m 1016 683 l 316 434 l 1016 187 l 1016 64 l 147 379 l 147 491 l 1016 807 l 1016 683 "},"£":{"x_min":33,"x_max":885.375,"ha":884,"o":"m 885 990 l 861 867 q 775 907 820 893 q 688 922 731 922 q 538 868 588 922 q 460 673 487 814 l 432 527 l 697 527 l 677 430 l 412 430 l 351 115 l 715 115 l 693 0 l 33 0 l 55 115 l 215 115 l 276 430 l 142 430 l 162 527 l 296 527 l 326 688 q 450 948 361 866 q 696 1031 538 1031 q 791 1020 743 1031 q 885 990 838 1010 "},"¹":{"x_min":91.5,"x_max":481.75,"ha":557,"o":"m 105 528 l 244 528 l 324 942 l 169 914 l 184 993 l 340 1019 l 438 1019 l 342 528 l 481 528 l 466 453 l 91 453 l 105 528 "},"t":{"x_min":89.015625,"x_max":587.53125,"ha":545,"o":"m 587 760 l 568 663 l 319 663 l 238 250 q 232 211 234 226 q 230 186 230 195 q 256 123 230 143 q 340 104 283 104 l 466 104 l 445 0 l 326 0 q 160 43 215 0 q 106 174 106 86 q 108 209 106 190 q 114 250 110 227 l 194 663 l 89 663 l 108 760 l 212 760 l 254 976 l 379 976 l 337 760 l 587 760 "},"¬":{"x_min":147,"x_max":1016,"ha":1164,"o":"m 147 585 l 1016 585 l 1016 195 l 902 195 l 902 470 l 147 470 l 147 585 "},"Ꙗ":{"x_min":44.765625,"x_max":1272.34375,"ha":1368,"o":"m 978 877 l 694 373 l 1066 373 l 978 877 m 929 1012 l 1084 1012 l 1272 0 l 1129 0 l 1087 259 l 631 259 l 488 0 l 343 0 l 602 448 l 269 448 l 181 0 l 44 0 l 241 1012 l 378 1012 l 291 563 l 669 563 l 929 1012 "},"ù":{"x_min":79,"x_max":818,"ha":880,"o":"m 92 301 l 181 760 l 306 760 l 217 306 q 207 249 210 272 q 204 209 204 225 q 240 120 204 152 q 340 89 275 89 q 514 156 440 89 q 609 339 587 224 l 693 760 l 818 760 l 671 0 l 545 0 l 571 119 q 445 16 518 52 q 290 -20 372 -20 q 134 34 190 -20 q 79 187 79 89 q 82 238 79 207 q 92 301 85 268 m 469 1111 l 611 857 l 506 857 l 336 1111 l 469 1111 "},"W":{"x_min":134,"x_max":1417,"ha":1373,"o":"m 134 1013 l 266 1013 l 315 151 l 697 1013 l 850 1013 l 900 151 l 1277 1013 l 1417 1013 l 966 0 l 794 0 l 747 844 l 368 0 l 196 0 l 134 1013 "},"ꚕ":{"x_min":23.734375,"x_max":760.203125,"ha":880,"o":"m 273 641 l 274 641 q 398 744 331 710 q 545 777 466 777 q 728 697 676 777 q 748 458 779 615 l 659 0 l 535 0 l 623 454 q 612 615 644 562 q 497 669 581 669 q 324 604 396 669 q 232 429 254 540 l 149 0 l 23 0 l 155 679 l 174 779 q 271 990 203 925 q 461 1055 339 1055 l 634 1055 l 613 949 l 455 949 q 352 916 384 949 q 299 779 320 883 l 273 641 "},"ï":{"x_min":49,"x_max":510,"ha":386,"o":"m 198 760 l 322 760 l 174 0 l 49 0 l 198 760 m 107 1053 l 246 1053 l 218 916 l 81 916 l 107 1053 m 372 1053 l 510 1053 l 483 916 l 346 916 l 372 1053 "},">":{"x_min":147,"x_max":1016,"ha":1164,"o":"m 147 683 l 147 807 l 1016 491 l 1016 379 l 147 64 l 147 187 l 845 434 l 147 683 "},"v":{"x_min":100,"x_max":839,"ha":822,"o":"m 100 760 l 232 760 l 343 114 l 706 760 l 839 760 l 407 0 l 238 0 l 100 760 "},"û":{"x_min":79,"x_max":818,"ha":880,"o":"m 92 301 l 181 760 l 306 760 l 217 306 q 207 249 210 272 q 204 209 204 225 q 240 120 204 152 q 340 89 275 89 q 514 156 440 89 q 609 339 587 224 l 693 760 l 818 760 l 671 0 l 545 0 l 571 119 q 445 16 518 52 q 290 -20 372 -20 q 134 34 190 -20 q 79 187 79 89 q 82 238 79 207 q 92 301 85 268 m 517 1111 l 617 1111 l 734 856 l 639 856 l 553 1016 l 395 856 l 301 856 l 517 1111 "},"Ò":{"x_min":56,"x_max":1038,"ha":1093,"o":"m 633 920 q 435 865 521 920 q 285 698 349 810 q 223 547 244 627 q 202 385 202 467 q 269 167 202 244 q 460 91 336 91 q 658 146 571 91 q 807 310 745 201 q 870 464 848 384 q 892 625 892 545 q 824 842 892 765 q 633 920 756 920 m 456 -20 q 162 90 269 -20 q 56 393 56 201 q 97 617 56 503 q 212 822 139 732 q 404 979 298 927 q 637 1031 510 1031 q 930 921 823 1031 q 1038 622 1038 811 q 997 393 1038 505 q 880 188 956 280 q 689 31 793 83 q 456 -20 584 -20 m 669 1288 l 770 1109 l 674 1109 l 546 1288 l 669 1288 "},"Ꙣ":{"x_min":-50.859375,"x_max":1513.796875,"ha":1423,"o":"m 61 115 q 202 239 160 158 q 381 821 307 445 l 418 1012 l 1513 1012 l 1491 897 l 998 897 l 846 115 l 961 115 l 897 -217 l 781 -217 l 824 0 l 106 0 l 64 -217 l -50 -217 l 13 115 l 61 115 m 261 115 l 709 115 l 861 897 l 532 897 l 504 753 q 319 190 438 415 q 261 115 294 144 "},"Ꙑ":{"x_min":116.65625,"x_max":1390.671875,"ha":1429,"o":"m 1253 1013 l 1390 1013 l 1193 0 l 1056 0 l 1253 1013 m 241 0 l 415 897 l 116 897 l 139 1012 l 575 1012 l 494 596 l 720 596 q 968 522 891 596 q 1025 374 1025 468 q 1017 297 1025 339 q 881 73 988 147 q 604 0 775 0 l 241 0 m 878 348 q 691 483 878 483 l 472 483 l 400 112 l 619 112 q 872 297 836 112 q 878 348 878 324 "},"&":{"x_min":65,"x_max":1022,"ha":1083,"o":"m 655 176 l 366 544 q 242 417 284 484 q 200 280 200 350 q 257 142 200 194 q 412 90 315 90 q 537 112 475 90 q 655 176 600 134 m 1022 543 q 941 345 991 435 q 821 182 891 256 l 963 0 l 792 0 l 720 94 q 566 8 648 37 q 393 -20 483 -20 q 154 53 243 -20 q 65 250 65 127 q 127 447 65 354 q 313 619 190 540 q 282 682 292 650 q 273 751 273 714 q 288 838 273 797 q 333 914 304 880 q 450 1000 380 969 q 602 1031 521 1031 q 709 1018 655 1031 q 817 982 762 1006 l 794 859 q 692 907 743 890 q 594 924 642 924 q 457 880 510 924 q 405 768 405 836 q 417 709 405 738 q 477 620 430 680 l 754 267 q 840 390 805 321 q 896 543 876 460 l 1022 543 "},"Ð":{"x_min":0,"x_max":1010,"ha":1076,"o":"m 242 1013 l 537 1013 q 890 913 770 1013 q 1010 618 1010 814 q 964 369 1010 489 q 837 166 918 249 q 633 41 757 82 q 341 0 510 0 l 45 0 l 136 474 l 0 474 l 19 572 l 155 572 l 242 1013 m 357 900 l 293 572 l 521 572 l 501 474 l 273 474 l 204 113 l 383 113 q 740 245 614 113 q 866 618 866 377 q 784 831 866 763 q 529 900 703 900 l 357 900 "},"I":{"x_min":37,"x_max":371.671875,"ha":410,"o":"m 234 1013 l 371 1013 l 174 0 l 37 0 l 234 1013 "},"G":{"x_min":62,"x_max":1007,"ha":1076,"o":"m 757 150 l 810 415 l 585 415 l 606 528 l 966 528 l 878 82 q 681 6 788 33 q 467 -20 575 -20 q 169 85 276 -20 q 62 380 62 191 q 127 678 62 537 q 308 914 192 819 q 467 1002 380 973 q 658 1031 553 1031 q 840 1007 753 1031 q 1007 935 927 983 l 978 789 q 835 886 917 852 q 660 920 753 920 q 470 878 552 920 q 324 751 388 837 q 237 578 269 678 q 206 376 206 479 q 278 162 206 234 q 495 91 351 91 q 634 106 567 91 q 757 150 701 121 "},"`":{"x_min":264,"x_max":539,"ha":695,"o":"m 397 1111 l 539 857 l 434 857 l 264 1111 l 397 1111 "},"·":{"x_min":158,"x_max":335.109375,"ha":442,"o":"m 192 568 l 335 568 l 301 396 l 158 396 l 192 568 "},"r":{"x_min":49,"x_max":643,"ha":571,"o":"m 619 645 q 575 659 600 654 q 523 665 551 665 q 349 589 424 665 q 250 387 275 514 l 174 0 l 49 0 l 198 760 l 322 760 l 298 642 q 417 742 348 707 q 563 778 485 778 q 603 775 584 778 q 643 768 623 773 l 619 645 "},"₤":{"x_min":33.234375,"x_max":885.078125,"ha":884,"o":"m 399 362 l 351 115 l 715 115 l 693 0 l 33 0 l 55 115 l 215 115 l 263 362 l 124 362 l 144 459 l 282 459 l 301 560 l 164 560 l 183 657 l 320 657 l 326 689 q 450 948 361 866 q 695 1030 538 1030 q 790 1020 743 1030 q 885 990 838 1010 l 861 866 q 775 908 819 893 q 687 922 731 922 q 537 868 588 922 q 459 673 487 814 l 457 657 l 719 657 l 699 560 l 438 560 l 418 459 l 680 459 l 660 362 l 399 362 "},"¿":{"x_min":52,"x_max":591,"ha":737,"o":"m 416 841 l 450 1013 l 587 1013 l 554 841 l 416 841 m 566 58 q 428 0 496 19 q 286 -18 359 -18 q 114 32 177 -18 q 52 171 52 83 q 88 302 52 241 q 206 429 124 363 l 276 486 q 353 564 333 532 q 384 657 372 596 l 401 741 l 530 741 l 509 636 q 470 528 496 572 q 369 421 443 483 l 296 361 q 216 277 239 313 q 194 202 194 241 q 230 122 194 151 q 332 93 267 93 q 453 117 387 93 q 591 186 520 141 l 566 58 "},"ý":{"x_min":-35,"x_max":837,"ha":822,"o":"m 344 -70 q 202 -252 257 -216 q 63 -289 148 -289 l -35 -289 l -13 -185 l 58 -185 q 147 -156 110 -185 q 229 -44 183 -127 l 267 27 l 99 760 l 231 760 l 357 177 l 706 760 l 837 760 l 344 -70 m 654 1111 l 789 1111 l 518 856 l 414 856 l 654 1111 "},"x":{"x_min":-36,"x_max":833,"ha":822,"o":"m 833 760 l 484 387 l 698 0 l 555 0 l 394 301 l 115 0 l -36 0 l 337 400 l 138 760 l 281 760 l 427 485 l 681 760 l 833 760 "},"è":{"x_min":64,"x_max":793,"ha":855,"o":"m 667 448 q 670 470 669 458 q 672 493 672 481 q 623 623 672 575 q 491 672 575 672 q 327 613 398 672 q 219 447 256 554 l 667 448 m 776 350 l 195 350 q 190 309 191 324 q 189 283 189 294 q 247 137 189 189 q 410 86 305 86 q 564 104 492 86 q 699 158 637 122 l 676 35 q 537 -6 608 7 q 392 -20 465 -20 q 149 55 234 -20 q 64 270 64 131 q 106 491 64 389 q 230 673 148 593 q 356 750 283 723 q 511 778 429 778 q 716 700 640 778 q 793 493 793 623 q 788 426 793 461 q 776 350 784 390 m 472 1111 l 614 857 l 509 857 l 339 1111 l 472 1111 "},"º":{"x_min":55.5625,"x_max":642,"ha":654,"o":"m 535 800 q 501 913 535 874 q 401 953 467 953 q 265 880 322 953 q 208 705 208 807 q 241 591 208 631 q 337 551 275 551 q 477 622 420 551 q 535 800 535 694 m 421 1031 q 581 972 521 1031 q 642 816 642 914 q 551 570 642 667 q 323 473 461 473 q 162 534 221 473 q 103 699 103 595 q 115 791 103 745 q 153 878 128 836 q 266 990 196 950 q 421 1031 337 1031 m 70 401 l 538 401 l 522 318 l 55 318 l 70 401 "},"Ø":{"x_min":-47.46875,"x_max":1124.484375,"ha":1093,"o":"m 830 837 q 750 899 799 878 q 634 920 700 920 q 435 865 522 920 q 286 700 348 810 q 222 545 244 626 q 200 387 200 464 q 204 326 200 356 q 216 267 208 297 l 830 837 m 874 757 l 258 182 q 343 113 293 136 q 460 91 392 91 q 658 146 571 91 q 808 310 746 201 q 871 466 850 387 q 893 629 893 546 q 888 698 893 667 q 874 757 884 730 m 108 166 q 69 276 82 220 q 56 389 56 331 q 97 616 56 502 q 212 821 138 730 q 403 978 297 926 q 638 1031 510 1031 q 797 1004 726 1031 q 926 926 869 978 l 1063 1057 l 1124 990 l 982 856 q 1023 749 1009 806 q 1037 625 1037 691 q 996 392 1037 505 q 880 189 956 280 q 689 31 794 83 q 456 -20 584 -20 q 288 8 361 -20 q 162 92 214 36 l 13 -45 l -47 22 l 108 166 "},"÷":{"x_min":147,"x_max":1016,"ha":1164,"o":"m 498 770 l 665 770 l 665 603 l 498 603 l 498 770 m 498 268 l 665 268 l 665 102 l 498 102 l 498 268 m 147 493 l 1016 493 l 1016 378 l 147 378 l 147 493 "},"h":{"x_min":49,"x_max":786,"ha":880,"o":"m 773 458 l 685 0 l 559 0 l 648 453 q 657 509 654 485 q 661 548 661 534 q 625 637 661 605 q 525 669 589 669 q 351 601 424 669 q 256 420 278 533 l 174 0 l 49 0 l 255 1055 l 379 1055 l 299 639 q 420 740 346 703 q 575 778 494 778 q 730 723 675 778 q 786 570 786 669 q 782 518 786 546 q 773 458 779 490 "},"Ꙇ":{"x_min":91.375,"x_max":405.578125,"ha":491,"o":"m 105 348 l 234 1012 l 371 1012 l 242 348 q 244 166 217 217 q 362 115 271 115 l 405 115 l 383 0 l 330 0 q 123 82 177 0 q 105 348 69 165 "},".":{"x_min":81,"x_max":257.109375,"ha":442,"o":"m 114 172 l 257 172 l 223 0 l 81 0 l 114 172 "},"₱":{"x_min":37.296875,"x_max":909.5,"ha":884,"o":"m 668 634 l 299 634 l 276 519 l 448 519 q 628 579 565 519 q 668 634 653 602 m 322 756 l 310 695 l 686 695 q 690 750 690 720 l 690 756 l 322 756 m 172 695 l 184 756 l 105 756 l 118 817 l 196 817 l 234 1012 l 551 1012 q 762 948 689 1012 q 830 817 817 899 l 909 817 l 896 756 l 834 756 q 830 695 834 725 l 892 695 l 879 634 l 816 634 q 727 499 790 554 q 426 406 620 406 l 254 406 l 174 0 l 37 0 l 160 634 l 88 634 l 101 695 l 172 695 m 334 817 l 678 817 q 648 860 668 842 q 529 900 605 900 l 349 900 l 334 817 "},";":{"x_min":1,"x_max":371.109375,"ha":468,"o":"m 122 172 l 265 172 l 241 55 l 88 -162 l 1 -162 l 98 55 l 122 172 m 228 718 l 371 718 l 337 546 l 195 546 l 228 718 "},"f":{"x_min":94,"x_max":664,"ha":489,"o":"m 664 1055 l 644 951 l 524 951 q 426 924 456 951 q 380 826 395 897 l 366 760 l 572 760 l 554 663 l 348 663 l 219 0 l 94 0 l 223 663 l 104 663 l 121 760 l 241 760 l 251 812 q 341 1000 276 946 q 545 1055 406 1055 l 664 1055 "},"ꙇ":{"x_min":99.15625,"x_max":358.109375,"ha":470,"o":"m 329 759 l 235 275 q 234 138 215 171 q 324 105 253 105 l 358 105 l 337 0 l 290 0 q 124 65 167 0 q 110 275 82 130 l 204 759 l 329 759 "},"A":{"x_min":-74,"x_max":854,"ha":950,"o":"m 511 1013 l 666 1013 l 854 0 l 710 0 l 668 260 l 213 260 l 70 0 l -74 0 l 511 1013 m 560 878 l 276 374 l 647 374 l 560 878 "},"6":{"x_min":87,"x_max":821.796875,"ha":884,"o":"m 637 374 q 592 510 637 460 q 473 560 548 560 q 296 479 367 560 q 225 279 225 398 q 268 139 225 189 q 389 89 312 89 q 566 171 495 89 q 637 374 637 254 m 821 989 l 798 864 q 708 903 759 889 q 600 917 657 917 q 374 828 459 917 q 247 551 289 740 q 362 639 296 609 q 503 669 427 669 q 701 597 627 669 q 775 405 775 525 q 738 221 775 306 q 633 71 702 135 q 522 3 585 27 q 388 -20 459 -20 q 167 68 248 -20 q 87 312 87 157 q 123 589 87 456 q 227 820 160 722 q 396 977 297 923 q 616 1031 496 1031 q 720 1020 669 1031 q 821 989 772 1010 "},"O":{"x_min":56,"x_max":1038,"ha":1093,"o":"m 633 920 q 435 865 521 920 q 285 698 349 810 q 223 547 244 627 q 202 385 202 467 q 269 167 202 244 q 460 91 336 91 q 658 146 571 91 q 807 310 745 201 q 870 464 848 384 q 892 625 892 545 q 824 842 892 765 q 633 920 756 920 m 456 -20 q 162 90 269 -20 q 56 393 56 201 q 97 617 56 503 q 212 822 139 732 q 404 979 298 927 q 637 1031 510 1031 q 930 921 823 1031 q 1038 622 1038 811 q 997 393 1038 505 q 880 188 956 280 q 689 31 793 83 q 456 -20 584 -20 "},"n":{"x_min":49,"x_max":786,"ha":880,"o":"m 773 458 l 685 0 l 559 0 l 648 453 q 657 509 654 485 q 661 548 661 534 q 625 637 661 605 q 524 669 589 669 q 351 602 424 669 q 257 420 279 535 l 173 0 l 49 0 l 196 760 l 320 760 l 295 639 q 421 741 347 705 q 575 778 494 778 q 730 723 675 778 q 786 570 786 669 q 782 518 786 546 q 773 458 779 490 "},"3":{"x_min":3,"x_max":794,"ha":884,"o":"m 219 988 q 364 1020 294 1009 q 502 1031 434 1031 q 715 971 636 1031 q 794 811 794 911 q 731 642 794 712 q 560 545 669 571 q 685 469 645 521 q 726 333 726 418 q 687 180 726 252 q 574 58 648 109 q 442 0 519 18 q 263 -20 364 -20 q 135 -7 200 -20 q 3 30 70 5 l 28 160 q 156 107 91 124 q 288 90 221 90 q 505 158 422 90 q 588 337 588 227 q 535 446 588 408 q 384 485 482 485 l 266 485 l 287 596 l 411 596 q 589 647 524 596 q 654 787 654 699 q 606 886 654 851 q 473 921 559 921 q 339 907 408 921 q 198 866 271 893 l 219 988 "},"9":{"x_min":61.5,"x_max":798,"ha":884,"o":"m 61 22 l 86 147 q 176 107 125 121 q 283 94 226 94 q 510 183 424 94 q 637 460 595 272 q 521 372 587 402 q 379 342 455 342 q 182 413 255 342 q 110 605 110 485 q 145 789 110 704 q 251 938 181 875 q 361 1007 299 983 q 494 1031 424 1031 q 716 941 635 1031 q 798 698 798 852 q 760 421 798 555 q 656 190 722 288 q 486 33 585 87 q 267 -20 387 -20 q 162 -9 214 -20 q 61 22 111 1 m 246 637 q 290 501 246 551 q 411 451 335 451 q 587 531 516 451 q 659 731 659 612 q 614 871 659 821 q 493 922 570 922 q 317 839 388 922 q 246 637 246 757 "},"ꙣ":{"x_min":-19.671875,"x_max":1291.34375,"ha":1285,"o":"m 83 99 q 189 184 150 126 q 339 615 283 327 l 366 759 l 1291 759 l 1271 659 l 861 659 l 752 99 l 851 99 l 795 -191 l 695 -191 l 733 0 l 117 0 l 80 -191 l -19 -191 l 36 99 l 83 99 m 264 99 l 626 99 l 735 659 l 473 659 l 455 564 q 291 136 400 285 l 264 99 "},"l":{"x_min":49,"x_max":379.796875,"ha":386,"o":"m 255 1055 l 379 1055 l 174 0 l 49 0 l 255 1055 "},"¤":{"x_min":63.640625,"x_max":822,"ha":884,"o":"m 604 673 l 744 815 l 822 737 l 682 597 q 719 517 707 557 q 732 435 732 477 q 719 353 732 392 q 679 275 706 314 l 820 135 l 743 58 l 603 198 q 524 158 563 171 q 443 146 484 146 q 363 158 403 146 q 281 196 322 171 l 140 56 l 63 133 l 204 273 q 166 355 179 315 q 154 435 154 395 q 166 517 154 478 q 205 595 179 557 l 65 734 l 143 813 l 283 672 q 360 711 321 698 q 443 724 399 724 q 523 711 484 724 q 604 673 563 699 m 626 436 q 573 564 626 512 q 443 617 520 617 q 313 564 367 617 q 260 436 260 512 q 313 305 260 358 q 443 253 366 253 q 573 306 520 253 q 626 436 626 359 "},"4":{"x_min":25,"x_max":784.921875,"ha":884,"o":"m 597 1013 l 770 1013 l 640 353 l 784 353 l 762 239 l 618 239 l 573 0 l 436 0 l 482 239 l 25 239 l 51 371 l 597 1013 m 610 893 l 158 353 l 504 353 l 610 893 "},"p":{"x_min":-4,"x_max":818,"ha":882,"o":"m 689 468 q 645 620 689 567 q 520 674 602 674 q 414 645 465 674 q 324 562 364 616 q 263 432 286 508 q 240 281 240 356 q 283 135 240 186 q 406 84 326 84 q 516 111 465 84 q 602 192 566 139 q 665 323 641 248 q 689 468 689 399 m 302 644 q 420 744 352 710 q 572 778 488 778 q 753 701 689 778 q 818 487 818 625 q 777 272 818 374 q 662 89 737 170 q 549 8 612 36 q 416 -20 486 -20 q 280 13 335 -20 q 198 113 225 46 l 120 -289 l -4 -289 l 200 760 l 324 760 l 302 644 "},"à":{"x_min":57,"x_max":760,"ha":851,"o":"m 746 433 l 661 0 l 536 0 l 559 115 q 434 13 504 47 q 278 -20 364 -20 q 119 39 181 -20 q 57 191 57 98 q 163 402 57 325 q 455 480 269 480 l 629 480 l 636 513 q 638 525 637 518 q 639 544 639 531 q 589 638 639 605 q 451 672 540 672 q 326 656 390 672 q 194 610 262 641 l 216 725 q 354 764 287 751 q 485 778 422 778 q 689 719 619 778 q 760 550 760 661 q 756 497 760 527 q 746 433 753 467 m 611 382 l 486 382 q 259 340 333 382 q 186 213 186 299 q 223 119 186 153 q 327 86 261 86 q 505 158 429 86 q 605 354 581 231 l 611 382 m 465 1111 l 607 857 l 502 857 l 332 1111 l 465 1111 "},"Ü":{"x_min":81,"x_max":990.46875,"ha":1017,"o":"m 215 1013 l 352 1013 l 233 397 q 223 328 226 355 q 220 281 220 302 q 272 139 220 188 q 425 91 324 91 q 629 162 556 91 q 733 397 702 234 l 852 1013 l 990 1013 l 868 380 q 716 77 828 175 q 409 -20 604 -20 q 169 56 258 -20 q 81 263 81 132 q 84 316 81 287 q 94 380 87 346 l 215 1013 m 444 1269 l 583 1269 l 555 1131 l 418 1131 l 444 1269 m 709 1269 l 846 1269 l 820 1131 l 683 1131 l 709 1269 "},"ó":{"x_min":64,"x_max":803,"ha":850,"o":"m 352 -20 q 141 62 219 -20 q 64 287 64 144 q 90 456 64 370 q 160 600 117 541 q 310 734 227 691 q 497 778 392 778 q 706 697 626 778 q 786 486 786 616 q 759 306 786 395 q 690 157 733 216 q 541 23 623 66 q 352 -20 458 -20 m 194 291 q 236 137 194 188 q 367 86 279 86 q 574 195 492 86 q 657 473 657 305 q 613 621 657 571 q 483 672 569 672 q 358 639 413 672 q 260 539 303 606 q 211 424 228 488 q 194 291 194 360 m 668 1111 l 803 1111 l 532 856 l 428 856 l 668 1111 "},"₴":{"x_min":53.578125,"x_max":1021.40625,"ha":1075,"o":"m 226 456 q 248 476 230 461 q 400 556 307 526 l 88 556 l 105 639 l 725 639 q 744 651 734 644 q 804 752 790 680 q 767 876 819 832 q 603 919 715 919 q 466 901 539 919 q 307 845 393 883 l 334 979 q 493 1018 416 1005 q 640 1030 569 1030 q 886 953 807 1030 q 940 741 965 876 q 903 639 928 684 l 1021 639 l 1005 556 l 830 556 q 595 465 748 493 l 548 456 l 986 456 l 969 373 l 331 373 q 278 269 290 333 q 316 137 261 183 q 488 91 370 91 q 650 115 565 91 q 827 185 735 139 l 800 44 q 622 -3 707 12 q 466 -19 538 -19 q 192 56 276 -19 q 137 279 108 132 q 167 373 147 330 l 53 373 l 69 456 l 226 456 "}}}
